<?xml version="1.0" encoding="UTF-8"?>
<svg xmlns="http://www.w3.org/2000/svg" version="1.1" viewBox="0 0 500 500">
  <defs>
    <style>
      .cls-1 {
        fill: #ebebeb;
      }

      .cls-2, .cls-3 {
        fill: #407bff;
      }

      .cls-4 {
        fill: #e6e6e6;
      }

      .cls-3, .cls-5, .cls-6 {
        opacity: .4;
      }

      .cls-7, .cls-5, .cls-8, .cls-9 {
        fill: #fff;
      }

      .cls-7, .cls-10 {
        opacity: .2;
      }

      .cls-8 {
        opacity: .9;
      }

      .cls-11, .cls-12 {
        fill: #263238;
      }

      .cls-13 {
        fill: #fafafa;
      }

      .cls-14 {
        opacity: .3;
      }

      .cls-15 {
        fill: #f5f5f5;
      }

      .cls-16 {
        fill: #f0f0f0;
      }

      .cls-12 {
        opacity: 0;
      }

      .cls-17 {
        fill: #ff5652;
      }

      .cls-18 {
        fill: #ff8b7b;
      }

      .cls-19 {
        display: none;
      }

      .cls-20 {
        fill: #e0e0e0;
      }
    </style>
  </defs>
  <!-- Generator: Adobe Illustrator 28.6.0, SVG Export Plug-In . SVG Version: 1.2.0 Build 709)  -->
  <g>
    <g id="Background_Complete">
      <g>
        <rect class="cls-1" y="382.4" width="500" height=".2"/>
        <rect class="cls-1" x="416.8" y="398.5" width="33.1" height=".2"/>
        <rect class="cls-1" x="333.4" y="398.5" width="70.8" height=".2"/>
        <rect class="cls-1" x="275.1" y="389.2" width="19.2" height=".2"/>
        <rect class="cls-1" x="52.5" y="390.9" width="34.3" height=".2"/>
        <rect class="cls-1" x="95.7" y="390.9" width="62.3" height=".2"/>
        <rect class="cls-1" x="188.3" y="395.1" width="36.8" height=".2"/>
        <path class="cls-1" d="M237,337.8H43.9c-3.1,0-5.7-2.6-5.7-5.7V60.7c0-3.1,2.6-5.7,5.7-5.7h193.1c3.1,0,5.7,2.6,5.7,5.7v271.4c0,3.1-2.6,5.7-5.7,5.7ZM43.9,55.2c-3,0-5.5,2.4-5.5,5.5v271.4c0,3,2.4,5.5,5.5,5.5h193.1c3,0,5.5-2.4,5.5-5.5V60.7c0-3-2.4-5.5-5.5-5.5H43.9Z"/>
        <path class="cls-1" d="M453.3,337.8h-193.1c-3.1,0-5.7-2.6-5.7-5.7V60.7c0-3.1,2.6-5.7,5.7-5.7h193.1c3.1,0,5.7,2.6,5.7,5.7v271.4c0,3.1-2.6,5.7-5.7,5.7ZM260.2,55.2c-3,0-5.5,2.4-5.5,5.5v271.4c0,3,2.4,5.5,5.5,5.5h193.1c3,0,5.5-2.4,5.5-5.5V60.7c0-3-2.4-5.5-5.5-5.5h-193.1Z"/>
      </g>
      <g>
        <g>
          <rect class="cls-16" x="337" y="242.2" width="18.5" height="134.6" transform="translate(692.5 619) rotate(180)"/>
          <rect class="cls-16" x="148" y="376.8" width="203.9" height="5.6" transform="translate(500 759.2) rotate(180)"/>
          <rect class="cls-15" x="144.5" y="242.2" width="192.5" height="134.6"/>
          <rect class="cls-4" x="337" y="237.3" width="18.5" height="4.9" transform="translate(692.5 479.5) rotate(180)"/>
          <rect class="cls-16" x="144.5" y="237.3" width="192.5" height="4.9"/>
          <path class="cls-20" d="M330.3,282.8h-179.2v-30.3h179.2v30.3ZM152.4,281.6h176.7v-27.8h-176.7v27.8Z"/>
          <path class="cls-20" d="M330.3,366.5h-179.2v-76.3h179.2v76.3ZM152.4,365.3h176.7v-73.8h-176.7v73.8Z"/>
          <rect class="cls-20" x="175.3" y="253.1" width="130.9" height="4" transform="translate(481.5 510.2) rotate(180)"/>
          <rect class="cls-20" x="175.3" y="290.8" width="130.9" height="4" transform="translate(481.5 585.7) rotate(180)"/>
        </g>
        <g>
          <path class="cls-15" d="M420.9,378.8h0c-.8,0-1.5-.7-1.5-1.5v-231.1c0-.8.7-1.5,1.5-1.5h0c.8,0,1.5.7,1.5,1.5v231.1c0,.8-.7,1.5-1.5,1.5Z"/>
          <path class="cls-16" d="M417.9,375.3h6c2.2,0,4.1,1.8,4.1,4.1v3.1h-14.1v-3.1c0-2.2,1.8-4.1,4.1-4.1Z"/>
          <path class="cls-20" d="M392.1,177s.7-28.3,28.8-28.3,28.8,28.3,28.8,28.3h-57.5Z"/>
        </g>
        <g>
          <path class="cls-15" d="M79.1,378.8h0c-.8,0-1.5-.7-1.5-1.5v-231.1c0-.8.7-1.5,1.5-1.5h0c.8,0,1.5.7,1.5,1.5v231.1c0,.8-.7,1.5-1.5,1.5Z"/>
          <path class="cls-16" d="M76.1,375.3h6c2.2,0,4.1,1.8,4.1,4.1v3.1h-14.1v-3.1c0-2.2,1.8-4.1,4.1-4.1Z"/>
          <path class="cls-20" d="M50.3,177s.7-28.3,28.8-28.3,28.8,28.3,28.8,28.3h-57.5Z"/>
        </g>
        <g>
          <rect class="cls-20" x="214.9" y="235.2" width="71.1" height="2.1"/>
          <polygon class="cls-20" points="286 235.2 214.9 235.2 221.8 194.5 292.9 194.5 286 235.2"/>
          <polygon class="cls-1" points="284.7 235.2 213.6 235.2 220.4 194.5 291.6 194.5 284.7 235.2"/>
          <path class="cls-13" d="M216.3,232l5.8-34.6c0-.4.5-.8.9-.8h65c.6,0,1,.5.9,1.1l-5.8,34.6c0,.4-.5.8-.9.8h-65c-.6,0-1-.5-.9-1.1Z"/>
          <rect class="cls-16" x="198.8" y="235.2" width="71.1" height="2.1"/>
        </g>
        <g>
          <rect class="cls-1" x="154.4" y="87.8" width="188.5" height="60.9"/>
          <rect class="cls-20" x="342.9" y="87.8" width="2.7" height="60.9" transform="translate(688.5 236.4) rotate(180)"/>
          <rect class="cls-9" x="162.7" y="96" width="172" height="44.4"/>
          <rect class="cls-15" x="241.3" y="110.9" width="14.6" height="14.6" transform="translate(156.4 -141.2) rotate(45)"/>
          <rect class="cls-15" x="213.5" y="110.9" width="14.6" height="14.6" transform="translate(148.3 -121.5) rotate(45)"/>
          <rect class="cls-15" x="185.8" y="110.9" width="14.6" height="14.6" transform="translate(140.1 -101.9) rotate(45)"/>
          <rect class="cls-15" x="269.1" y="110.9" width="14.6" height="14.6" transform="translate(164.6 -160.8) rotate(45)"/>
          <rect class="cls-15" x="296.9" y="110.9" width="14.6" height="14.6" transform="translate(172.7 -180.5) rotate(45)"/>
        </g>
      </g>
    </g>
    <g id="Background_Simple" class="cls-19">
      <g>
        <path class="cls-2" d="M49.1,217.7c-.8,25.8,5.1,57.8,40.9,60.6,17.9,1.4,37.8-4.5,55.7-1.9,19,2.8,31.5,9.4,54.1,6.8,87.8-10.3,140.1-84.7,134.1-136.3-5-42.7-48.1-117.9-129.6-70-16.1,9.5-28.9,21.9-44.7,31.3-15,8.9-38.8,1.2-67.8,22-26.2,18.8-42,66.8-42.7,87.4Z"/>
        <path class="cls-8" d="M49.1,217.7c-.8,25.8,5.1,57.8,40.9,60.6,17.9,1.4,37.8-4.5,55.7-1.9,19,2.8,31.5,9.4,54.1,6.8,87.8-10.3,140.1-84.7,134.1-136.3-5-42.7-48.1-117.9-129.6-70-16.1,9.5-28.9,21.9-44.7,31.3-15,8.9-38.8,1.2-67.8,22-26.2,18.8-42,66.8-42.7,87.4Z"/>
      </g>
    </g>
    <g id="Shadow">
      <ellipse id="_x3C_Path_x3E_" class="cls-15" cx="250" cy="416.2" rx="193.9" ry="11.3"/>
    </g>
    <g id="Calculator">
      <g>
        <g>
          <path class="cls-2" d="M362.9,123c.3-5-3.4-9-8.4-9h-138.4c-5,0-9.3,4-9.6,9l-3.2,47.9-19.9,147.4c-.7,5,2.8,9,7.8,9h138.4c5,0,9.6-4,10.2-9l19.9-147.4,3.2-47.9Z"/>
          <path class="cls-10" d="M362.9,123c.3-5-3.4-9-8.4-9h-138.4c-5,0-9.3,4-9.6,9l-3.2,47.9-19.9,147.4c-.7,5,2.8,9,7.8,9h138.4c5,0,9.6-4,10.2-9l19.9-147.4,3.2-47.9Z"/>
        </g>
        <path class="cls-2" d="M324.7,327.4h-138.4c-5,0-8.5-4-7.8-9l19.9-147.4h156.5l-19.9,147.4c-.7,5-5.3,9-10.2,9Z"/>
        <rect class="cls-2" x="216" y="110.5" width="20.6" height="1"/>
        <path class="cls-2" d="M206.3,112.6l-.4-.9c1.7-.8,3.5-1.2,5.3-1.2v1c-1.7,0-3.3.4-4.9,1.1Z"/>
        <path class="cls-2" d="M349.6,114h-138.4c-5,0-9.3,4-9.6,9l-3.2,47.9h156.5l3.2-47.9c.3-5-3.4-9-8.4-9Z"/>
        <path class="cls-8" d="M206.1,159.3l2.2-33.5c.2-2.6,2.4-4.7,5.1-4.7h133.1c2.6,0,4.6,2.1,4.4,4.7l-2.2,33.5c-.2,2.6-2.4,4.7-5.1,4.7h-133.1c-2.6,0-4.6-2.1-4.4-4.7Z"/>
        <g class="cls-6">
          <path class="cls-2" d="M336.9,126.5l-1.5,1.4c0,0-.2.1-.3.1h-8c-.1,0-.2,0-.3-.1l-1.3-1.4c-.2-.3,0-.7.3-.7h10.8c.4,0,.6.5.3.7Z"/>
          <path class="cls-2" d="M334.7,152.5h-10.8c-.4,0-.6-.5-.3-.7l1.5-1.4c0,0,.2-.1.3-.1h8c.1,0,.2,0,.3.1l1.3,1.4c.2.3,0,.7-.3.7Z"/>
          <path class="cls-2" d="M335.8,139.4l-.8.7c0,0-.2.1-.3.1h-9.4c-.2,0-.4-.2-.4-.4v-1.4c.1-.2.3-.4.5-.4h9.4c.1,0,.2,0,.3.1l.6.7c.2.2.1.4,0,.6Z"/>
          <path class="cls-2" d="M337.1,140.2l-.8,10.9c0,.4-.5.5-.7.2l-1.3-1.4c0,0-.1-.2-.1-.3l.6-8c0-.1,0-.2.1-.3l1.5-1.4c.3-.3.7,0,.7.3Z"/>
          <path class="cls-2" d="M338,127.3l-.8,10.9c0,.4-.5.5-.7.2l-1.3-1.4c0,0-.1-.2-.1-.3l.6-8c0-.1,0-.2.1-.3l1.5-1.4c.3-.3.7,0,.7.3Z"/>
        </g>
        <path class="cls-3" d="M319.5,157h0c0-.8.7-1.4,1.5-1.4h17c.8,0,1.5.7,1.4,1.5h0c0,.8-.7,1.4-1.5,1.4h-17c-.8,0-1.5-.7-1.4-1.5Z"/>
        <path class="cls-3" d="M298.3,157h0c0-.8.7-1.4,1.5-1.4h17c.8,0,1.5.7,1.4,1.5h0c0,.8-.7,1.4-1.5,1.4h-17c-.8,0-1.5-.7-1.4-1.5Z"/>
        <path class="cls-3" d="M277,157h0c0-.8.7-1.4,1.5-1.4h17c.8,0,1.5.7,1.4,1.5h0c0,.8-.7,1.4-1.5,1.4h-17c-.8,0-1.5-.7-1.4-1.5Z"/>
        <path class="cls-3" d="M255.7,157h0c0-.8.7-1.4,1.5-1.4h17c.8,0,1.5.7,1.4,1.5h0c0,.8-.7,1.4-1.5,1.4h-17c-.8,0-1.5-.7-1.4-1.5Z"/>
        <path class="cls-12" d="M208.8,239.4l6.3-46.3c.4-3.1,3.2-5.5,6.3-5.5h46.3c3.1,0,5.2,2.5,4.8,5.5l-6.3,46.3c-.4,3.1-3.2,5.5-6.3,5.5h-46.3c-3.1,0-5.2-2.5-4.8-5.5Z"/>
        <path class="cls-12" d="M274.7,239.4l6.3-46.3c.4-3.1,3.2-5.5,6.3-5.5h46.3c3.1,0,5.2,2.5,4.8,5.5l-6.3,46.3c-.4,3.1-3.2,5.5-6.3,5.5h-46.3c-3.1,0-5.2-2.5-4.8-5.5Z"/>
        <path class="cls-12" d="M199.9,305.3l6.3-46.3c.4-3.1,3.2-5.5,6.3-5.5h46.3c3.1,0,5.2,2.5,4.8,5.5l-6.3,46.3c-.4,3.1-3.2,5.5-6.3,5.5h-46.3c-3.1,0-5.2-2.5-4.8-5.5Z"/>
        <path class="cls-12" d="M265.8,305.3l6.3-46.3c.4-3.1,3.2-5.5,6.3-5.5h46.3c3.1,0,5.2,2.5,4.8,5.5l-6.3,46.3c-.4,3.1-3.2,5.5-6.3,5.5h-46.3c-3.1,0-5.2-2.5-4.8-5.5Z"/>
        <g>
          <path class="cls-2" d="M205.7,239.4l6.3-46.3c.4-3.1,3.2-5.5,6.3-5.5h46.3c3.1,0,5.2,2.5,4.8,5.5l-6.3,46.3c-.4,3.1-3.2,5.5-6.3,5.5h-46.3c-3.1,0-5.2-2.5-4.8-5.5Z"/>
          <path class="cls-7" d="M205.7,239.4l6.3-46.3c.4-3.1,3.2-5.5,6.3-5.5h46.3c3.1,0,5.2,2.5,4.8,5.5l-6.3,46.3c-.4,3.1-3.2,5.5-6.3,5.5h-46.3c-3.1,0-5.2-2.5-4.8-5.5Z"/>
        </g>
        <g>
          <path class="cls-2" d="M271.6,239.4l6.3-46.3c.4-3.1,3.2-5.5,6.3-5.5h46.3c3.1,0,5.2,2.5,4.8,5.5l-6.3,46.3c-.4,3.1-3.2,5.5-6.3,5.5h-46.3c-3.1,0-5.2-2.5-4.8-5.5Z"/>
          <path class="cls-7" d="M271.6,239.4l6.3-46.3c.4-3.1,3.2-5.5,6.3-5.5h46.3c3.1,0,5.2,2.5,4.8,5.5l-6.3,46.3c-.4,3.1-3.2,5.5-6.3,5.5h-46.3c-3.1,0-5.2-2.5-4.8-5.5Z"/>
        </g>
        <g>
          <path class="cls-2" d="M196.8,305.3l6.3-46.3c.4-3.1,3.2-5.5,6.3-5.5h46.3c3.1,0,5.2,2.5,4.8,5.5l-6.3,46.3c-.4,3.1-3.2,5.5-6.3,5.5h-46.3c-3.1,0-5.2-2.5-4.8-5.5Z"/>
          <path class="cls-7" d="M196.8,305.3l6.3-46.3c.4-3.1,3.2-5.5,6.3-5.5h46.3c3.1,0,5.2,2.5,4.8,5.5l-6.3,46.3c-.4,3.1-3.2,5.5-6.3,5.5h-46.3c-3.1,0-5.2-2.5-4.8-5.5Z"/>
        </g>
        <g>
          <path class="cls-2" d="M262.7,305.3l6.3-46.3c.4-3.1,3.2-5.5,6.3-5.5h46.3c3.1,0,5.2,2.5,4.8,5.5l-6.3,46.3c-.4,3.1-3.2,5.5-6.3,5.5h-46.3c-3.1,0-5.2-2.5-4.8-5.5Z"/>
          <path class="cls-7" d="M262.7,305.3l6.3-46.3c.4-3.1,3.2-5.5,6.3-5.5h46.3c3.1,0,5.2,2.5,4.8,5.5l-6.3,46.3c-.4,3.1-3.2,5.5-6.3,5.5h-46.3c-3.1,0-5.2-2.5-4.8-5.5Z"/>
        </g>
        <g>
          <path class="cls-9" d="M234.9,235.5h0c-3.1,0-5.2-2.5-4.8-5.6l3.7-27.4c.4-3.1,3.3-5.6,6.3-5.6h0c3.1,0,5.2,2.5,4.8,5.6l-3.7,27.4c-.4,3.1-3.3,5.6-6.3,5.6Z"/>
          <path class="cls-9" d="M218.3,216.2h0c.4-3.1,3.3-5.6,6.3-5.6h27.4c3.1,0,5.2,2.5,4.8,5.6h0c-.4,3.1-3.3,5.6-6.3,5.6h-27.4c-3.1,0-5.2-2.5-4.8-5.6Z"/>
          <path class="cls-9" d="M213.2,295.8h0c-1.9-2.2-1.4-5.7,1.1-7.9l22-19.4c2.5-2.2,6-2.2,7.9,0h0c1.9,2.2,1.4,5.7-1.1,7.9l-22,19.4c-2.5,2.2-6,2.2-7.9,0Z"/>
          <path class="cls-9" d="M216.8,268.5h0c2.5-2.2,6-2.2,7.9,0l16.8,19.4c1.9,2.2,1.4,5.7-1.1,7.9h0c-2.5,2.2-6,2.2-7.9,0l-16.8-19.4c-1.9-2.2-1.4-5.7,1.1-7.9Z"/>
          <path class="cls-9" d="M284.2,216.2h0c.4-3.1,3.3-5.6,6.3-5.6h27.4c3.1,0,5.2,2.5,4.8,5.6h0c-.4,3.1-3.3,5.6-6.3,5.6h-27.4c-3.1,0-5.2-2.5-4.8-5.6Z"/>
          <path class="cls-9" d="M276.4,273.5h0c.4-3.1,3.3-5.6,6.3-5.6h27.4c3.1,0,5.2,2.5,4.8,5.6h0c-.4,3.1-3.3,5.6-6.3,5.6h-27.4c-3.1,0-5.2-2.5-4.8-5.6Z"/>
          <path class="cls-9" d="M274.1,290.8h0c.4-3.1,3.3-5.6,6.3-5.6h27.4c3.1,0,5.2,2.5,4.8,5.6h0c-.4,3.1-3.3,5.6-6.3,5.6h-27.4c-3.1,0-5.2-2.5-4.8-5.6Z"/>
        </g>
      </g>
    </g>
    <g id="Character">
      <g>
        <path class="cls-18" d="M133.4,179.7c-1.8,3.3-3.6,6.9-5.3,10.5-1.7,3.5-3.3,7.1-4.7,10.7-.4.9-.7,1.8-1,2.7-.2.4-.3.9-.3,1.5,0,1.1.2,2.6.8,4.1,1.2,3.1,3.4,6.4,5.7,9.3l-3.4,4c-1-.7-1.9-1.3-2.7-2-.9-.7-1.7-1.4-2.5-2.2-1.6-1.6-3.1-3.3-4.4-5.4-1.3-2.1-2.3-4.6-2.6-7.5-.1-1.5,0-3.1.4-4.6.3-1,.5-2.1.9-3.1,1.2-4.1,2.7-8.1,4.4-12,.9-1.9,1.7-3.8,2.7-5.7,1-1.9,1.9-3.7,3.1-5.6l9.2,5.3Z"/>
        <path class="cls-18" d="M127,217.3l5,1.3-3.7,7.2s-3.7-1.4-4.6-4.7l3.3-3.9Z"/>
        <polygon class="cls-18" points="138.9 220.9 134.4 226.6 128.3 225.9 132 218.6 138.9 220.9"/>
        <path class="cls-11" d="M156.9,141.6c.1.6.5.9.9.9.4,0,.6-.6.5-1.1-.1-.6-.5-.9-.9-.9-.4,0-.6.6-.5,1.1Z"/>
        <path class="cls-17" d="M157.4,142.5s1.9,3,3.6,4.2c-.8,1.1-2.6,1-2.6,1l-1.1-5.3Z"/>
        <path class="cls-11" d="M158.1,146.3c-1.6,0-3.2-1.8-3.7-4.2-.3-1.3-.2-2.6.2-3.6.4-1,1.1-1.7,2-1.9.9-.2,1.8.2,2.6,1,.8.8,1.4,1.9,1.6,3.2.3,1.3.2,2.6-.2,3.6-.4,1-1.1,1.7-2,1.9-.1,0-.3,0-.4,0ZM157.1,136.8c-.1,0-.3,0-.4,0-.8.2-1.4.8-1.8,1.7-.4,1-.5,2.2-.2,3.4.5,2.5,2.2,4.3,3.9,4,.8-.2,1.4-.8,1.8-1.7.4-1,.5-2.2.2-3.4-.3-1.2-.8-2.3-1.5-3.1-.6-.6-1.3-.9-1.9-.9Z"/>
        <path class="cls-18" d="M209.6,199.2l6.4-1.4.8,8.7s-5.5,1.1-8.2-3.3l.9-4Z"/>
        <polygon class="cls-18" points="222.1 199.8 221.7 206.1 216.9 206.5 216 197.8 222.1 199.8"/>
        <path class="cls-11" d="M154.3,138.9c0,0-.2,0-.2,0-.1-.1-.1-.3,0-.5,1.3-1.4,2.8-1.1,2.8-1.1.2,0,.3.2.3.4,0,.2-.2.3-.4.3h0c0,0-1.2-.2-2.2.9,0,0-.2.1-.2.1Z"/>
        <path class="cls-18" d="M141.5,151.7c1,5.1,1.6,12.3-2,15.7,0,0,1.4,5.2,11,5.2s5.1-4.6,5.1-4.6c-4.4-1.4-4.3-6.3-3.3-10.3l-10.7-6Z"/>
        <path class="cls-11" d="M152.3,166.1c2.4-1.7,5.9-3.7,6.6-1.6.4,1.3.6,7.4-1.8,6.9-3.6-.7-4.8-5.3-4.8-5.3Z"/>
        <path class="cls-2" d="M137.5,170.8c-.9-1.3-.9-5.5.1-6.3,1.6-1.2,8.5-1.5,17.8.7-1,4.1,1.1,6.2,1.1,6.2l-19.1-.6Z"/>
        <path class="cls-2" d="M106.3,408.2c.7.2,1.4.2,1.8,0,.1-.1.3-.4.2-.8,0-.2-.2-.4-.4-.5-.9-.5-3.1.4-3.2.5,0,0-.1,0-.1.1,0,0,0,.1,0,.2.3.2,1,.4,1.8.6ZM107.4,407.1c0,0,.1,0,.2,0,.1,0,.2.2.3.3,0,.3,0,.4,0,.4-.4.3-1.8,0-2.8-.4.7-.2,1.8-.5,2.4-.4Z"/>
        <path class="cls-2" d="M104.6,407.7s0,0,0,0c.8-.2,2.5-1.4,2.5-2.2,0-.1,0-.4-.4-.5-.2,0-.5,0-.7,0-.9.5-1.5,2.4-1.6,2.5,0,0,0,.1,0,.2s0,0,0,0ZM106.6,405.2s0,0,0,0c.2,0,.2.2.2.2,0,.5-1.1,1.4-2,1.8.2-.6.7-1.7,1.3-2,.1,0,.3,0,.4,0Z"/>
        <path class="cls-2" d="M158.2,409.4c.9,0,1.8-.1,2.1-.5.1-.1.2-.4,0-.7-.1-.2-.3-.3-.5-.4-1.2-.3-3.6,1.1-3.7,1.1,0,0,0,.1,0,.2s0,.1.1.1c.4,0,1.3.2,2.2.2ZM159.3,408.1c.1,0,.2,0,.3,0,.2,0,.3.1.3.2.1.2,0,.3,0,.4-.3.5-2.1.5-3.4.3.7-.3,1.9-.9,2.7-.9Z"/>
        <path class="cls-2" d="M156.1,409.2s0,0,0,0c.8-.4,2.5-1.9,2.4-2.7,0-.2-.2-.4-.6-.5-.3,0-.7,0-.9.3-.9.7-1.1,2.6-1.1,2.7,0,0,0,.1,0,.2,0,0,0,0,0,0ZM157.8,406.4s0,0,.1,0c.3,0,.3.1.3.2,0,.5-1.1,1.7-1.9,2.2,0-.6.3-1.7.9-2.2.2-.1.4-.2.6-.2Z"/>
        <polygon class="cls-18" points="148.4 409.1 155.4 409.1 156.1 392.8 149.1 392.8 148.4 409.1"/>
        <polygon class="cls-18" points="96.7 405.8 103.6 407.3 110.5 392.1 103.6 390.6 96.7 405.8"/>
        <path class="cls-11" d="M104.3,406.6l-7.7-1.7c-.3,0-.6,0-.7.3l-2.7,5.8c-.3.6,0,1.3.7,1.4,2.7.5,4.1.7,7.4,1.4,2.1.5,6.8,1.6,9.7,2.2,2.8.6,3.9-2.1,2.8-2.7-5-2.3-7.2-4.3-8.5-6.2-.2-.3-.6-.6-1-.7Z"/>
        <path class="cls-11" d="M155.4,408.2h-7.7c-.3,0-.5.2-.6.5l-1.4,6.3c-.1.6.3,1.3,1,1.3,2.8,0,6.8-.2,10.3-.2s7.6.2,12.4.2,3.7-2.9,2.5-3.2c-5.5-1.2-10-1.3-14.8-4.3-.5-.3-1.1-.5-1.7-.5Z"/>
        <g>
          <path class="cls-2" d="M126.9,169c-6.6,1.5-12,18.3-12,18.3l13.2,10.1s4.9-4.6,7-13c2.3-8.8-1.5-17-8.2-15.4Z"/>
          <path class="cls-5" d="M126.9,169c-6.6,1.5-12,18.3-12,18.3l13.2,10.1s4.9-4.6,7-13c2.3-8.8-1.5-17-8.2-15.4Z"/>
        </g>
        <path class="cls-18" d="M166.5,177l11.1,10.2c1.8,1.7,3.7,3.4,5.6,5,1.8,1.7,3.7,3.3,5.5,4.8l-1.5-.8c.9.3,1.8.6,2.7.9,1,.2,1.9.5,2.9.7,2,.4,4.1.6,6.3.8,2.2.2,4.3.3,6.6.4,2.2,0,4.5.1,6.7.1l1.1,5.2c-2.4.9-4.6,1.5-7,2-2.4.5-4.8.9-7.2,1.1-2.4.2-4.9.3-7.5.1-2.6-.2-5.2-.6-7.8-1.3l-.8-.2-.8-.6c-2.2-1.7-4.1-3.3-6.1-5-1.9-1.7-3.9-3.4-5.8-5.1-3.8-3.4-7.5-6.9-11.2-10.4l7.3-7.8Z"/>
        <path class="cls-10" d="M132.6,181.4c-3.6,3.5-4.7,10-5,15.6l.6.5s4.9-4.6,7-13c.1-.5.2-1.1.3-1.6l-2.9-1.5Z"/>
        <g>
          <path class="cls-2" d="M168.6,176c1.4,7.6,2.3,23.2-1.8,54.1h-37.6c-.3-5.8,3.4-33.9-2.2-61.2,0,0,6.4-1.3,12.6-1.6,4.8-.2,11.8-.4,16,0,1.8.2,3.5.4,5,.7,4.1.7,7.3,3.9,8,8Z"/>
          <path class="cls-5" d="M168.6,176c1.4,7.6,2.3,23.2-1.8,54.1h-37.6c-.3-5.8,3.4-33.9-2.2-61.2,0,0,6.4-1.3,12.6-1.6,4.8-.2,11.8-.4,16,0,1.8.2,3.5.4,5,.7,4.1.7,7.3,3.9,8,8Z"/>
        </g>
        <path class="cls-10" d="M162.8,187.3l6.8-1.6c.2,4.1.2,9.2,0,15.5-3.1-3.6-7.1-9.1-6.7-13.9Z"/>
        <g>
          <polygon class="cls-10" points="156.1 392.8 155.7 401.2 148.7 401.2 149.1 392.8 156.1 392.8"/>
          <polygon class="cls-10" points="103.6 390.6 110.5 392.1 107 399.9 100.1 398.5 103.6 390.6"/>
        </g>
        <path class="cls-18" d="M138.2,144.2c1.8,6.7,2.5,10.8,6.7,13.6,6.3,4.2,14.1-.6,14.3-7.8.2-6.4-2.8-16.4-10-17.7-7.1-1.3-12.8,5.2-11,11.9Z"/>
        <path class="cls-11" d="M153.5,144.7c3.2-.4,2.3-4.1,1.1-5.9,0,0,7-8.5-1.1-11.9-8.1-3.4-6.1,1.9-6.1,1.9,0,0-6.3-4.8-11.8-.9-5.5,3.8-.8,5.5-.8,5.5,0,0-10,2.9-6,8s8.1,4.6,8.1,4.6c0,0-8.3,3.3-2,6.9,6.3,3.7,8.7,3.8,8.7,3.8h0c3.5.4,6.8-1.7,7.8-5.1l2.1-7Z"/>
        <path class="cls-18" d="M150.7,144.7c.1,1.8,1,3.5,2,4.7,1.5,1.7,3.1.6,3.4-1.4.2-1.9-.3-5-2.1-5.9-1.8-.9-3.4.6-3.2,2.6Z"/>
        <path class="cls-11" d="M153.4,230.1s-8,53.8-12.4,73.9c-4.8,22.1-30.5,95-30.5,95l-12.6-2.7s18-59.5,22-90.3c3.1-23.7,9.2-75.9,9.2-75.9h24.3Z"/>
        <path class="cls-2" d="M113.5,394.8c0,0-2.3,4.6-2.3,4.6l-14.2-3.1,1.2-4.3,15.3,2.8Z"/>
        <path class="cls-14" d="M148.4,249.3c-9.2,1.8-8.3,36.2-7.1,53.9,2.7-12.5,6.6-36.6,9.2-53.7-.6-.3-1.3-.4-2.1-.2Z"/>
        <path class="cls-11" d="M166.7,230.1s1,52.6.2,74c-.8,22.3-8.6,95.4-8.6,95.4h-11.9s-.4-71.7-1-93.7c-.6-23.9-3.5-75.7-3.5-75.7h24.7Z"/>
        <path class="cls-2" d="M160.7,394.8c0,0-.7,4.9-.7,4.9h-14.5l-.4-4.4,15.6-.5Z"/>
        <g>
          <path class="cls-2" d="M153.8,178.3c-3.4,9.1,16.4,19.8,16.4,19.8l8.6-11s-5.7-11.4-12.7-16.5c-8.7-6.3-9.7.8-12.3,7.8Z"/>
          <path class="cls-5" d="M153.8,178.3c-3.4,9.1,16.4,19.8,16.4,19.8l8.6-11s-5.7-11.4-12.7-16.5c-8.7-6.3-9.7.8-12.3,7.8Z"/>
        </g>
        <ellipse class="cls-11" cx="210.8" cy="200.1" rx="2.5" ry="1.8"/>
        <path class="cls-11" d="M209.8,206c-.1,0-.3,0-.4-.2-.2-.2-.2-.5,0-.7,0,0,1.3-1.2.8-3.9,0-.3.1-.5.4-.6.3,0,.5.1.6.4.7,3.3-1.1,4.8-1.1,4.9,0,0-.2.1-.3.1Z"/>
        <path class="cls-5" d="M212.8,200c0,.8-.9,1.4-2,1.4s-2-.6-2-1.4.9-1.4,2-1.4,2,.6,2,1.4Z"/>
        <path class="cls-2" d="M156.9,167.5c-4.6,3.3-12.6,16-14,23.5,0,.2-.3.3-.5,0-6.7-10.6-7.4-21.5-7.5-23.3,0-.1-.1-.2-.3-.2-.7,0-2.5.2-3.3.4-.1,0-.2.1-.2.3.6,14.2,7.7,25,10.5,28.4,0,0,0,.1,0,.2-.6,11.3.2,31.4.3,33.8,0,.1.1.2.2.2h3c.1,0,.3-.1.2-.3-.1-2.3-1.1-19.8,0-34.1,0,0,0,0,0,0,1.7-10.7,11.8-25.1,15.3-27.9.2-.1,0-.4-.1-.4-1.5-.3-3.2-.5-3.6-.6,0,0-.1,0-.2,0Z"/>
      </g>
    </g>
  </g>
</svg>