<?xml version="1.0" encoding="UTF-8"?>
<svg xmlns="http://www.w3.org/2000/svg" xmlns:xlink="http://www.w3.org/1999/xlink" version="1.1" viewBox="0 0 820 700">
  <!-- Generator: Adobe Illustrator 29.0.0, SVG Export Plug-In . SVG Version: 2.1.0 Build 186)  -->
  <defs>
    <style>
      .st0 {
        filter: url(#drop-shadow-1);
      }

      .st1 {
        filter: url(#drop-shadow-3);
      }

      .st2 {
        filter: url(#drop-shadow-2);
      }

      .st3 {
        fill: #603279;
      }

      .st4 {
        fill: #f4f6f8;
        opacity: .7;
      }

      .st4, .st5 {
        isolation: isolate;
      }

      .st6 {
        fill: #b271ac;
      }

      .st7 {
        fill: url(#Degradado_sin_nombre_3610);
      }

      .st8 {
        fill: url(#Degradado_sin_nombre_3611);
      }

      .st9 {
        fill: url(#Degradado_sin_nombre_3612);
      }

      .st10 {
        fill: url(#Degradado_sin_nombre_3613);
      }

      .st11 {
        fill: url(#Degradado_sin_nombre_2010);
      }

      .st12 {
        fill: url(#Degradado_sin_nombre_3510);
      }

      .st13 {
        fill: url(#Degradado_sin_nombre_3515);
      }

      .st14 {
        fill: url(#Degradado_sin_nombre_3513);
      }

      .st15 {
        fill: url(#Degradado_sin_nombre_3514);
      }

      .st16 {
        fill: url(#Degradado_sin_nombre_3511);
      }

      .st17 {
        fill: url(#Degradado_sin_nombre_3512);
      }

      .st18 {
        fill: #fff;
      }

      .st19 {
        fill: url(#Degradado_sin_nombre_271);
      }

      .st20 {
        fill: url(#Degradado_sin_nombre_209);
      }

      .st21 {
        fill: url(#Degradado_sin_nombre_206);
      }

      .st22 {
        fill: url(#Degradado_sin_nombre_207);
      }

      .st23 {
        fill: url(#Degradado_sin_nombre_204);
      }

      .st24 {
        fill: url(#Degradado_sin_nombre_205);
      }

      .st25 {
        fill: url(#Degradado_sin_nombre_202);
      }

      .st26 {
        fill: url(#Degradado_sin_nombre_203);
      }

      .st27 {
        fill: url(#Degradado_sin_nombre_208);
      }

      .st28 {
        fill: url(#Degradado_sin_nombre_151);
      }

      .st29 {
        fill: url(#Degradado_sin_nombre_152);
      }

      .st30 {
        fill: url(#Degradado_sin_nombre_341);
      }

      .st31 {
        fill: url(#Degradado_sin_nombre_297);
      }

      .st32 {
        fill: url(#Degradado_sin_nombre_293);
      }

      .st33 {
        fill: url(#Degradado_sin_nombre_294);
      }

      .st34 {
        fill: url(#Degradado_sin_nombre_292);
      }

      .st35 {
        fill: url(#Degradado_sin_nombre_291);
      }

      .st36 {
        fill: url(#Degradado_sin_nombre_296);
      }

      .st37 {
        fill: url(#Degradado_sin_nombre_295);
      }

      .st38 {
        fill: url(#Degradado_sin_nombre_113);
      }

      .st39 {
        fill: url(#Degradado_sin_nombre_356);
      }

      .st40 {
        fill: url(#Degradado_sin_nombre_355);
      }

      .st41 {
        fill: url(#Degradado_sin_nombre_354);
      }

      .st42 {
        fill: url(#Degradado_sin_nombre_353);
      }

      .st43 {
        fill: url(#Degradado_sin_nombre_359);
      }

      .st44 {
        fill: url(#Degradado_sin_nombre_358);
      }

      .st45 {
        fill: url(#Degradado_sin_nombre_352);
      }

      .st46 {
        fill: url(#Degradado_sin_nombre_351);
      }

      .st47 {
        fill: url(#Degradado_sin_nombre_366);
      }

      .st48 {
        fill: url(#Degradado_sin_nombre_369);
      }

      .st49 {
        fill: url(#Degradado_sin_nombre_368);
      }

      .st50 {
        fill: url(#Degradado_sin_nombre_362);
      }

      .st51 {
        fill: url(#Degradado_sin_nombre_365);
      }

      .st52 {
        fill: url(#Degradado_sin_nombre_364);
      }

      .st53 {
        fill: url(#Degradado_sin_nombre_367);
      }

      .st54 {
        fill: url(#Degradado_sin_nombre_361);
      }

      .st55 {
        fill: url(#Degradado_sin_nombre_363);
      }

      .st56 {
        fill: url(#Degradado_sin_nombre_424);
      }

      .st57 {
        fill: url(#Degradado_sin_nombre_423);
      }

      .st58 {
        fill: url(#Degradado_sin_nombre_422);
      }

      .st59 {
        fill: url(#Degradado_sin_nombre_421);
      }

      .st60 {
        fill: url(#Degradado_sin_nombre_425);
      }

      .st61 {
        fill: url(#Degradado_sin_nombre_242);
      }

      .st61, .st62, .st63, .st64, .st65, .st66, .st67 {
        mix-blend-mode: multiply;
      }

      .st61, .st62, .st63, .st67 {
        opacity: .5;
      }

      .st62 {
        fill: url(#Degradado_sin_nombre_241);
      }

      .st63 {
        fill: url(#Degradado_sin_nombre_357);
      }

      .st64 {
        fill: url(#Degradado_sin_nombre_111);
      }

      .st64, .st65, .st66 {
        opacity: .2;
      }

      .st65 {
        fill: url(#Degradado_sin_nombre_112);
      }

      .st66 {
        fill: url(#Degradado_sin_nombre_201);
      }

      .st68 {
        fill: url(#Degradado_sin_nombre_9);
      }

      .st67 {
        fill: url(#Degradado_sin_nombre_2011);
      }

      .st69 {
        fill: url(#Degradado_sin_nombre_42);
      }

      .st70 {
        fill: url(#Degradado_sin_nombre_46);
      }

      .st71 {
        fill: url(#Degradado_sin_nombre_35);
      }

      .st72 {
        fill: url(#Degradado_sin_nombre_34);
      }

      .st73 {
        fill: url(#Degradado_sin_nombre_36);
      }

      .st74 {
        fill: url(#Degradado_sin_nombre_33);
      }

      .st75 {
        fill: url(#Degradado_sin_nombre_15);
      }

      .st76 {
        fill: url(#Degradado_sin_nombre_11);
      }

      .st77 {
        fill: url(#Degradado_sin_nombre_27);
      }

      .st78 {
        fill: url(#Degradado_sin_nombre_24);
      }

      .st79 {
        fill: url(#Degradado_sin_nombre_29);
      }

      .st80 {
        fill: url(#Degradado_sin_nombre_20);
      }

      .st81 {
        fill: url(#Degradado_sin_nombre_22);
      }
    </style>
    <linearGradient id="Degradado_sin_nombre_35" data-name="Degradado sin nombre 35" x1="312.9" y1="277.7" x2="379.1" y2="277.7" gradientTransform="translate(2.7 116.3)" gradientUnits="userSpaceOnUse">
      <stop offset="0" stop-color="#b762a2"/>
      <stop offset="1" stop-color="#7b388c"/>
    </linearGradient>
    <linearGradient id="Degradado_sin_nombre_36" data-name="Degradado sin nombre 36" x1="314.8" y1="273" x2="372.8" y2="273" gradientTransform="translate(2.4 116.4)" gradientUnits="userSpaceOnUse">
      <stop offset="0" stop-color="#f4da41"/>
      <stop offset="1" stop-color="#e0662a"/>
    </linearGradient>
    <linearGradient id="Degradado_sin_nombre_351" data-name="Degradado sin nombre 35" x1="321.6" y1="273" x2="366.1" y2="273" gradientTransform="translate(2.4 116.4)" xlink:href="#Degradado_sin_nombre_35"/>
    <linearGradient id="Degradado_sin_nombre_361" data-name="Degradado sin nombre 36" x1="322.7" y1="269.8" x2="363.1" y2="269.8" gradientTransform="translate(2.3 116.5)" xlink:href="#Degradado_sin_nombre_36"/>
    <linearGradient id="Degradado_sin_nombre_29" data-name="Degradado sin nombre 29" x1="2784.9" y1="-2260.3" x2="2844.1" y2="-2260.3" gradientTransform="translate(2089.8 3207.4) rotate(-90) scale(1 .8)" gradientUnits="userSpaceOnUse">
      <stop offset="0" stop-color="#f4da41" stop-opacity="0"/>
      <stop offset="1" stop-color="#fdf0e5"/>
    </linearGradient>
    <linearGradient id="Degradado_sin_nombre_362" data-name="Degradado sin nombre 36" x1="350.3" y1="327.5" x2="426.3" y2="327.5" gradientTransform="translate(5.4 113.9)" xlink:href="#Degradado_sin_nombre_36"/>
    <linearGradient id="Degradado_sin_nombre_363" data-name="Degradado sin nombre 36" x1="352.6" y1="323.6" x2="419.1" y2="323.6" gradientTransform="translate(5.2 114)" xlink:href="#Degradado_sin_nombre_36"/>
    <linearGradient id="Degradado_sin_nombre_352" data-name="Degradado sin nombre 35" x1="360.3" y1="323.6" x2="411.4" y2="323.6" gradientTransform="translate(5.2 114)" xlink:href="#Degradado_sin_nombre_35"/>
    <linearGradient id="Degradado_sin_nombre_364" data-name="Degradado sin nombre 36" x1="361.6" y1="320.9" x2="408" y2="320.9" gradientTransform="translate(5.1 114.1)" xlink:href="#Degradado_sin_nombre_36"/>
    <linearGradient id="Degradado_sin_nombre_291" data-name="Degradado sin nombre 29" x1="2734.3" y1="-2215.3" x2="2784.1" y2="-2215.3" gradientTransform="translate(2595.5 2822.3) rotate(-101) scale(1 .8)" xlink:href="#Degradado_sin_nombre_29"/>
    <linearGradient id="Degradado_sin_nombre_353" data-name="Degradado sin nombre 35" x1="322.3" y1="178.5" x2="437.6" y2="178.5" gradientTransform="translate(-12.3 136.2) rotate(-3.2)" xlink:href="#Degradado_sin_nombre_35"/>
    <linearGradient id="Degradado_sin_nombre_354" data-name="Degradado sin nombre 35" x1="419.8" y1="127.2" x2="420.4" y2="127.2" gradientTransform="translate(-12.3 136.2) rotate(-3.2)" xlink:href="#Degradado_sin_nombre_35"/>
    <linearGradient id="Degradado_sin_nombre_355" data-name="Degradado sin nombre 35" x1="387.9" y1="110" x2="396.1" y2="110" gradientTransform="translate(-12.3 136.2) rotate(-3.2)" xlink:href="#Degradado_sin_nombre_35"/>
    <linearGradient id="Degradado_sin_nombre_356" data-name="Degradado sin nombre 35" x1="322.3" y1="193.6" x2="363.5" y2="193.6" gradientTransform="translate(-12.3 136.2) rotate(-3.2)" xlink:href="#Degradado_sin_nombre_35"/>
    <linearGradient id="Degradado_sin_nombre_357" data-name="Degradado sin nombre 35" x1="326.1" y1="181.4" x2="441.3" y2="181.4" gradientTransform="translate(-12.3 136.2) rotate(-3.2)" xlink:href="#Degradado_sin_nombre_35"/>
    <linearGradient id="Degradado_sin_nombre_42" data-name="Degradado sin nombre 42" x1="332.5" y1="168.6" x2="421.4" y2="168.6" gradientTransform="translate(-12.3 136.2) rotate(-3.2)" gradientUnits="userSpaceOnUse">
      <stop offset="0" stop-color="#fff" stop-opacity="0"/>
      <stop offset="0" stop-color="#fff" stop-opacity="0"/>
      <stop offset=".2" stop-color="#fff" stop-opacity="0"/>
      <stop offset=".4" stop-color="#fff" stop-opacity=".2"/>
      <stop offset=".5" stop-color="#fff" stop-opacity=".3"/>
      <stop offset=".7" stop-color="#fff" stop-opacity=".5"/>
      <stop offset=".8" stop-color="#fff" stop-opacity=".7"/>
      <stop offset="1" stop-color="#fff" stop-opacity="1"/>
      <stop offset="1" stop-color="#fff"/>
    </linearGradient>
    <linearGradient id="Degradado_sin_nombre_20" data-name="Degradado sin nombre 20" x1="367.3" y1="176.8" x2="514.6" y2="176.8" gradientTransform="translate(-12.3 136.2) rotate(-3.2)" gradientUnits="userSpaceOnUse">
      <stop offset="0" stop-color="#f4da41"/>
      <stop offset="1" stop-color="#f29337"/>
    </linearGradient>
    <linearGradient id="Degradado_sin_nombre_201" data-name="Degradado sin nombre 20" x1="363.5" y1="181.6" x2="509.9" y2="181.6" xlink:href="#Degradado_sin_nombre_20"/>
    <linearGradient id="Degradado_sin_nombre_202" data-name="Degradado sin nombre 20" x1="457.5" y1="134.1" x2="463.5" y2="134.1" xlink:href="#Degradado_sin_nombre_20"/>
    <linearGradient id="Degradado_sin_nombre_203" data-name="Degradado sin nombre 20" x1="475.9" y1="153.5" x2="480.8" y2="153.5" xlink:href="#Degradado_sin_nombre_20"/>
    <linearGradient id="Degradado_sin_nombre_204" data-name="Degradado sin nombre 20" x1="374" y1="157" x2="439.6" y2="157" xlink:href="#Degradado_sin_nombre_20"/>
    <linearGradient id="Degradado_sin_nombre_205" data-name="Degradado sin nombre 20" x1="490" y1="180.9" x2="514.6" y2="180.9" xlink:href="#Degradado_sin_nombre_20"/>
    <linearGradient id="Degradado_sin_nombre_358" data-name="Degradado sin nombre 35" x1="3893" y1="1266.2" x2="4080.5" y2="1266.2" gradientTransform="translate(4791.1 -1027.8) rotate(144.7) scale(1.1 1.1)" xlink:href="#Degradado_sin_nombre_35"/>
    <linearGradient id="Degradado_sin_nombre_34" data-name="Degradado sin nombre 34" x1="330.2" y1="242.8" x2="486.6" y2="242.8" gradientTransform="translate(-12.3 136.2) rotate(-3.2)" gradientUnits="userSpaceOnUse">
      <stop offset="0" stop-color="#f1d3e7"/>
      <stop offset="1" stop-color="#90589e"/>
    </linearGradient>
    <linearGradient id="Degradado_sin_nombre_206" data-name="Degradado sin nombre 20" x1="406.7" y1="326.5" x2="501.9" y2="326.5" xlink:href="#Degradado_sin_nombre_20"/>
    <linearGradient id="Degradado_sin_nombre_365" data-name="Degradado sin nombre 36" x1="406.7" y1="302" x2="476.8" y2="302" gradientTransform="translate(-12.3 136.2) rotate(-3.2)" xlink:href="#Degradado_sin_nombre_36"/>
    <linearGradient id="Degradado_sin_nombre_366" data-name="Degradado sin nombre 36" x1="479.2" y1="309.5" x2="501.9" y2="309.5" gradientTransform="translate(-12.3 136.2) rotate(-3.2)" xlink:href="#Degradado_sin_nombre_36"/>
    <linearGradient id="Degradado_sin_nombre_367" data-name="Degradado sin nombre 36" x1="439.1" y1="355.4" x2="444.8" y2="355.4" gradientTransform="translate(-12.3 136.2) rotate(-3.2)" xlink:href="#Degradado_sin_nombre_36"/>
    <linearGradient id="Degradado_sin_nombre_207" data-name="Degradado sin nombre 20" x1="406.7" y1="347.6" x2="457.5" y2="347.6" xlink:href="#Degradado_sin_nombre_20"/>
    <linearGradient id="Degradado_sin_nombre_208" data-name="Degradado sin nombre 20" x1="455.8" y1="333.4" x2="472.8" y2="333.4" xlink:href="#Degradado_sin_nombre_20"/>
    <linearGradient id="Degradado_sin_nombre_209" data-name="Degradado sin nombre 20" x1="474.1" y1="315.7" x2="501.9" y2="315.7" xlink:href="#Degradado_sin_nombre_20"/>
    <linearGradient id="Degradado_sin_nombre_24" data-name="Degradado sin nombre 24" x1="4246.4" y1="-416.7" x2="4369" y2="-416.7" gradientTransform="translate(4642.2 1351.2) rotate(-160.9)" gradientUnits="userSpaceOnUse">
      <stop offset="0" stop-color="#74c6d4"/>
      <stop offset="1" stop-color="#49c0eb"/>
    </linearGradient>
    <linearGradient id="Degradado_sin_nombre_27" data-name="Degradado sin nombre 27" x1="4132.9" y1="-381" x2="4234.3" y2="-381" gradientTransform="translate(4798.6 1423.8) rotate(-160.9) scale(1.1 1.1)" gradientUnits="userSpaceOnUse">
      <stop offset="0" stop-color="#74c6d4"/>
      <stop offset="1" stop-color="#4985c5"/>
    </linearGradient>
    <linearGradient id="Degradado_sin_nombre_271" data-name="Degradado sin nombre 27" x1="434.8" y1="228.7" x2="484.5" y2="228.7" gradientTransform="translate(-12.3 136.2) rotate(-3.2)" xlink:href="#Degradado_sin_nombre_27"/>
    <linearGradient id="Degradado_sin_nombre_241" data-name="Degradado sin nombre 24" x1="4364.9" y1="36.7" x2="4478.4" y2="36.7" gradientTransform="translate(4831.6 809.3) rotate(-174.3)" xlink:href="#Degradado_sin_nombre_24"/>
    <linearGradient id="Degradado_sin_nombre_242" data-name="Degradado sin nombre 24" x1="4363.2" y1="32.6" x2="4476.7" y2="32.6" gradientTransform="translate(4831.6 809.3) rotate(-174.3)" xlink:href="#Degradado_sin_nombre_24"/>
    <linearGradient id="Degradado_sin_nombre_9" data-name="Degradado sin nombre 9" x1="332.5" y1="282.6" x2="464.3" y2="282.6" gradientTransform="translate(-12.3 136.2) rotate(-3.2)" gradientUnits="userSpaceOnUse">
      <stop offset="0" stop-color="#d288b9"/>
      <stop offset="1" stop-color="#ca398d"/>
    </linearGradient>
    <linearGradient id="Degradado_sin_nombre_11" data-name="Degradado sin nombre 11" x1="332.5" y1="273.6" x2="444.2" y2="273.6" gradientTransform="translate(-12.3 136.2) rotate(-3.2)" gradientUnits="userSpaceOnUse">
      <stop offset="0" stop-color="#b762a2"/>
      <stop offset="1" stop-color="#90589e"/>
    </linearGradient>
    <linearGradient id="Degradado_sin_nombre_111" data-name="Degradado sin nombre 11" x1="365" y1="-79.1" x2="476.6" y2="-79.1" gradientTransform="translate(-.6 561.4) rotate(-13.3)" xlink:href="#Degradado_sin_nombre_11"/>
    <linearGradient id="Degradado_sin_nombre_112" data-name="Degradado sin nombre 11" x1="593" y1="-9.1" x2="704.6" y2="-9.1" gradientTransform="translate(-311.1 575.6) rotate(-13.3) scale(1.1 1.2)" xlink:href="#Degradado_sin_nombre_11"/>
    <linearGradient id="Degradado_sin_nombre_15" data-name="Degradado sin nombre 15" x1="370.7" y1="235.6" x2="415.4" y2="235.6" gradientTransform="translate(-12.3 136.2) rotate(-3.2)" gradientUnits="userSpaceOnUse">
      <stop offset="0" stop-color="#f1d3e7"/>
      <stop offset="1" stop-color="#90589e" stop-opacity="0"/>
    </linearGradient>
    <linearGradient id="Degradado_sin_nombre_151" data-name="Degradado sin nombre 15" x1="3965.1" y1="1530.4" x2="4009.7" y2="1530.4" gradientTransform="translate(4449.4 -844) rotate(141.7)" xlink:href="#Degradado_sin_nombre_15"/>
    <linearGradient id="Degradado_sin_nombre_152" data-name="Degradado sin nombre 15" x1="335.4" y1="291.5" x2="461.5" y2="291.5" xlink:href="#Degradado_sin_nombre_15"/>
    <linearGradient id="Degradado_sin_nombre_2010" data-name="Degradado sin nombre 20" x1="328.7" y1="206.1" x2="438.6" y2="206.1" xlink:href="#Degradado_sin_nombre_20"/>
    <linearGradient id="Degradado_sin_nombre_22" data-name="Degradado sin nombre 22" x1="336.5" y1="191.3" x2="427.8" y2="191.3" gradientTransform="translate(-12.3 136.2) rotate(-3.2)" gradientUnits="userSpaceOnUse">
      <stop offset="0" stop-color="#f6e385"/>
      <stop offset="1" stop-color="#f6b376"/>
    </linearGradient>
    <linearGradient id="Degradado_sin_nombre_2011" data-name="Degradado sin nombre 20" x1="340.4" y1="197" x2="430.9" y2="197" xlink:href="#Degradado_sin_nombre_20"/>
    <linearGradient id="Degradado_sin_nombre_33" data-name="Degradado sin nombre 33" x1="4278.6" y1="-407.3" x2="4315.1" y2="-407.3" gradientTransform="translate(4642.2 1351.2) rotate(-160.9)" gradientUnits="userSpaceOnUse">
      <stop offset="0" stop-color="#fff"/>
      <stop offset="1" stop-color="#49c0eb" stop-opacity="0"/>
    </linearGradient>
    <linearGradient id="Degradado_sin_nombre_292" data-name="Degradado sin nombre 29" x1="365.4" y1="170.9" x2="422.1" y2="170.9" gradientTransform="translate(-12.3 136.2) rotate(-3.2)" xlink:href="#Degradado_sin_nombre_29"/>
    <linearGradient id="Degradado_sin_nombre_113" data-name="Degradado sin nombre 11" x1="364.7" y1="242.6" x2="452.8" y2="242.6" xlink:href="#Degradado_sin_nombre_11"/>
    <linearGradient id="Degradado_sin_nombre_359" data-name="Degradado sin nombre 35" x1="364.7" y1="242.6" x2="452.6" y2="242.6" gradientTransform="translate(-12.3 136.2) rotate(-3.2)" xlink:href="#Degradado_sin_nombre_35"/>
    <linearGradient id="Degradado_sin_nombre_341" data-name="Degradado sin nombre 34" x1="364.7" y1="242.6" x2="452" y2="242.6" xlink:href="#Degradado_sin_nombre_34"/>
    <linearGradient id="Degradado_sin_nombre_368" data-name="Degradado sin nombre 36" x1="412.3" y1="345.6" x2="440.7" y2="345.6" gradientTransform="translate(6.4 111.7)" xlink:href="#Degradado_sin_nombre_36"/>
    <linearGradient id="Degradado_sin_nombre_369" data-name="Degradado sin nombre 36" x1="413.2" y1="343.6" x2="438" y2="343.6" gradientTransform="translate(6.3 111.7)" xlink:href="#Degradado_sin_nombre_36"/>
    <linearGradient id="Degradado_sin_nombre_3510" data-name="Degradado sin nombre 35" x1="416.1" y1="343.6" x2="435.1" y2="343.6" gradientTransform="translate(6.3 111.7)" xlink:href="#Degradado_sin_nombre_35"/>
    <linearGradient id="Degradado_sin_nombre_3610" data-name="Degradado sin nombre 36" x1="416.5" y1="342.2" x2="433.9" y2="342.2" gradientTransform="translate(6.2 111.8)" xlink:href="#Degradado_sin_nombre_36"/>
    <linearGradient id="Degradado_sin_nombre_293" data-name="Degradado sin nombre 29" x1="2722.7" y1="-2167" x2="2748" y2="-2167" gradientTransform="translate(2103.6 3192.2) rotate(-90) scale(1 .8)" xlink:href="#Degradado_sin_nombre_29"/>
    <linearGradient id="Degradado_sin_nombre_3611" data-name="Degradado sin nombre 36" x1="671" y1="-505.9" x2="680.5" y2="-505.9" gradientTransform="translate(-185.2 914.3)" xlink:href="#Degradado_sin_nombre_36"/>
    <linearGradient id="Degradado_sin_nombre_294" data-name="Degradado sin nombre 29" x1="671.9" y1="-507.1" x2="678.2" y2="-507.1" gradientTransform="translate(120.3 1167) rotate(-27.2)" xlink:href="#Degradado_sin_nombre_29"/>
    <linearGradient id="Degradado_sin_nombre_3612" data-name="Degradado sin nombre 36" x1="4089.2" y1="-889.1" x2="4098.7" y2="-889.1" gradientTransform="translate(1489.2 4343.9) rotate(-90) scale(1 1.1)" xlink:href="#Degradado_sin_nombre_36"/>
    <linearGradient id="Degradado_sin_nombre_295" data-name="Degradado sin nombre 29" x1="4090.1" y1="-890.3" x2="4096.4" y2="-890.3" gradientTransform="translate(4352.2 1916.9) rotate(-142.9) scale(1 1.1)" xlink:href="#Degradado_sin_nombre_29"/>
    <linearGradient id="Degradado_sin_nombre_3511" data-name="Degradado sin nombre 35" x1="3558.2" y1="-915.5" x2="3567.6" y2="-915.5" gradientTransform="translate(1444.9 6034.4) rotate(-90) scale(1.6 1.1)" xlink:href="#Degradado_sin_nombre_35"/>
    <linearGradient id="Degradado_sin_nombre_421" data-name="Degradado sin nombre 42" x1="3559.1" y1="-916.7" x2="3565.4" y2="-916.7" gradientTransform="translate(5659 2906.4) rotate(-142.8) scale(1.6 1.1)" xlink:href="#Degradado_sin_nombre_42"/>
    <linearGradient id="Degradado_sin_nombre_3512" data-name="Degradado sin nombre 35" x1="2181.7" y1="1583.5" x2="2188.2" y2="1583.5" gradientTransform="translate(2384.8 -3210.8) rotate(90) scale(1.6 1.3)" xlink:href="#Degradado_sin_nombre_35"/>
    <linearGradient id="Degradado_sin_nombre_422" data-name="Degradado sin nombre 42" x1="2182.3" y1="1582.7" x2="2186.7" y2="1582.7" gradientTransform="translate(2384.4 -3211.2) rotate(90) scale(1.6 1.3)" xlink:href="#Degradado_sin_nombre_42"/>
    <linearGradient id="Degradado_sin_nombre_3513" data-name="Degradado sin nombre 35" x1="2345.4" y1="549" x2="2351.9" y2="549" gradientTransform="translate(2218.2 -9581.2) rotate(90) scale(4.3 3.2)" xlink:href="#Degradado_sin_nombre_35"/>
    <linearGradient id="Degradado_sin_nombre_423" data-name="Degradado sin nombre 42" x1="2346" y1="548.1" x2="2350.4" y2="548.1" gradientTransform="translate(2216.3 -9582.5) rotate(90) scale(4.3 3.2)" xlink:href="#Degradado_sin_nombre_42"/>
    <linearGradient id="Degradado_sin_nombre_3613" data-name="Degradado sin nombre 36" x1="3404.1" y1="-1283.1" x2="3419.2" y2="-1283.1" gradientTransform="translate(1848.5 5199.5) rotate(-90) scale(1.4 1.1)" xlink:href="#Degradado_sin_nombre_36"/>
    <linearGradient id="Degradado_sin_nombre_296" data-name="Degradado sin nombre 29" x1="3405.5" y1="-1285" x2="3415.6" y2="-1285" gradientTransform="translate(1850.1 5200.5) rotate(-90) scale(1.4 1.1)" xlink:href="#Degradado_sin_nombre_29"/>
    <linearGradient id="Degradado_sin_nombre_3514" data-name="Degradado sin nombre 35" x1="1840.2" y1="-1495.9" x2="1867.8" y2="-1495.9" gradientTransform="translate(-2293 2112.9) scale(1.4 1.1)" xlink:href="#Degradado_sin_nombre_35"/>
    <linearGradient id="Degradado_sin_nombre_3515" data-name="Degradado sin nombre 35" x1="1483.9" y1="-1140.9" x2="1507.5" y2="-1140.9" gradientTransform="translate(-1778 1712.2) scale(1.4 1.1)" xlink:href="#Degradado_sin_nombre_35"/>
    <linearGradient id="Degradado_sin_nombre_46" data-name="Degradado sin nombre 46" x1="1486.1" y1="-1144" x2="1501.8" y2="-1144" gradientTransform="translate(-1779.8 1714.9) scale(1.4 1.1)" gradientUnits="userSpaceOnUse">
      <stop offset="0" stop-color="#fff" stop-opacity="0"/>
      <stop offset="1" stop-color="#fff"/>
    </linearGradient>
    <linearGradient id="Degradado_sin_nombre_424" data-name="Degradado sin nombre 42" x1="457.5" y1="225.5" x2="499" y2="225.5" xlink:href="#Degradado_sin_nombre_42"/>
    <linearGradient id="Degradado_sin_nombre_425" data-name="Degradado sin nombre 42" x1="430.9" y1="314.1" x2="482.5" y2="314.1" xlink:href="#Degradado_sin_nombre_42"/>
    <linearGradient id="Degradado_sin_nombre_297" data-name="Degradado sin nombre 29" x1="493.3" y1="145.7" x2="511.9" y2="145.7" gradientTransform="translate(-12.3 136.2) rotate(-3.2)" xlink:href="#Degradado_sin_nombre_29"/>
    <filter id="drop-shadow-1">
      <feOffset dx="2" dy="2"/>
      <feGaussianBlur result="blur" stdDeviation="3"/>
      <feFlood flood-color="#000" flood-opacity=".8"/>
      <feComposite in2="blur" operator="in"/>
      <feComposite in="SourceGraphic"/>
    </filter>
    <filter id="drop-shadow-2">
      <feOffset dx="2" dy="2"/>
      <feGaussianBlur result="blur-2" stdDeviation="3"/>
      <feFlood flood-color="#000" flood-opacity=".8"/>
      <feComposite in2="blur-2" operator="in"/>
      <feComposite in="SourceGraphic"/>
    </filter>
    <filter id="drop-shadow-3">
      <feOffset dx="2" dy="2"/>
      <feGaussianBlur result="blur-3" stdDeviation="3"/>
      <feFlood flood-color="#000" flood-opacity=".8"/>
      <feComposite in2="blur-3" operator="in"/>
      <feComposite in="SourceGraphic"/>
    </filter>
  </defs>
  <g class="st5">
    <g id="Vrstva_1">
      <g class="st5">
        <g id="BACKGROUND">
          <rect class="st4" y="0" width="820" height="700"/>
        </g>
      </g>
      <g>
        <rect class="st3" x="283.8" y="156.5" width="252.3" height="387.1"/>
        <g>
          <g>
            <ellipse class="st71" cx="348.7" cy="394" rx="33.1" ry="37.6" transform="translate(-21.6 20.2) rotate(-3.2)"/>
            <ellipse class="st73" cx="346.3" cy="389.4" rx="29" ry="32.8" transform="translate(-21.3 20) rotate(-3.2)"/>
            <ellipse class="st46" cx="346.3" cy="389.4" rx="22.3" ry="26.1" transform="translate(-21.3 20) rotate(-3.2)"/>
            <ellipse class="st54" cx="345.2" cy="386.3" rx="20.2" ry="22.9" transform="translate(-21.1 20) rotate(-3.2)"/>
            <ellipse class="st79" cx="345.9" cy="392.8" rx="25.9" ry="29.6" transform="translate(-68.7 73.3) rotate(-11)"/>
          </g>
          <g>
            <ellipse class="st50" cx="393.7" cy="441.4" rx="38" ry="31.4" transform="translate(-24.1 22.8) rotate(-3.2)"/>
            <ellipse class="st55" cx="391" cy="437.6" rx="33.3" ry="27.5" transform="translate(-23.9 22.6) rotate(-3.2)"/>
            <ellipse class="st45" cx="391" cy="437.6" rx="25.5" ry="21.9" transform="translate(-23.9 22.6) rotate(-3.2)"/>
            <ellipse class="st52" cx="389.8" cy="435" rx="23.2" ry="19.2" transform="translate(-23.8 22.6) rotate(-3.2)"/>
            <path class="st35" d="M384.6,416.2c16.1-2.5,31.9,6.3,35.1,19.6,3.3,13.4-7.1,26.2-23.2,28.8-16.1,2.5-31.9-6.3-35.1-19.6-3.3-13.4,7.1-26.2,23.2-28.8Z"/>
          </g>
          <path class="st42" d="M340.3,386.1c-3.1-9.8-16.6-15.9-17-30.1-.4-14.2,5.7-19.5,0-34-5.7-14.6-4.9-41.7,7.9-50.2,12.8-8.5,6.5-34.9,21.8-37.9,15.3-3,20.2,16.1,29.8,12.1s-10.3-42,3-44.4c11.1-2,1.6,30.7,15.1,36.3,13.5,5.6,14.4-5.1,31.5,11,0,0-59.2,12.7-70,53.5-10.8,40.8-22,83.7-22,83.7Z"/>
          <g>
            <path class="st41" d="M414.5,239.6c-.2,0-.4,0-.6,0,.2,0,.4,0,.6,0Z"/>
            <path class="st40" d="M382.8,246c-.1,0-.3,0-.4.1,1.3.3,2.7.3,4.1-.3,9.2-3.8-8.9-39.2,1.6-44-.7-.3-1.5-.4-2.4-.2-13.3,2.4,6.6,40.4-3,44.4Z"/>
            <path class="st39" d="M327,355.9c-.4-14.2,5.7-19.5,0-34-5.7-14.6-4.9-41.7,7.9-50.2,12.8-8.5,6.5-34.9,21.8-37.9.2,0,.3,0,.5,0-1.3,0-2.7,0-4.2.3-15.3,3-9,29.4-21.8,37.9-12.8,8.5-13.6,35.7-7.9,50.2,5.7,14.6-.4,19.8,0,34,.4,14.2,13.9,20.3,17,30.1,0,0,.5-1.8,1.3-5-5-7.3-14.3-13.5-14.6-25.3Z"/>
          </g>
          <path class="st63" d="M344.2,389c-3.1-9.8-16.6-15.9-17-30.1-.4-14.2,5.7-19.5,0-34-5.7-14.6-4.9-41.7,7.9-50.2,12.8-8.5,6.5-34.9,21.8-37.9,15.3-3,20.2,16.1,29.8,12.1s-11.5-43.4-.8-44.6c7.2-.8-.7,31.4,15.1,36.8,13.9,4.7,18.1-5.3,35.2,10.8,0,0-59.2,12.7-70,53.5-10.8,40.8-22,83.7-22,83.7Z"/>
          <path class="st69" d="M331.4,312.1c0-11.7-6.6-24.7,4.6-30.2,11.2-5.5,14.5-23,22.3-31.3,7.8-8.4,10.5,7.6,23.5,5.2,13-2.4,1.6-29.7,6.6-31,6.3-1.8,3.5,21.2,14,22.9,8.6,1.4,21.2,20,10.3,18.4-4.8-.7-33.1-12.1-39.3,5.9-6.2,18,2,16.2-5,21.2-7.1,5-21.2,12.7-13.9,27.9,7.3,15.1,8.2,23.8-.9,20.7-9.1-3.1-22.1-22.6-22.1-29.6Z"/>
          <path class="st80" d="M365.4,251.6c8.7.2,26-3.5,39.6-2.7,13.7.8,25-1.7,29-6,4-4.3,13.6-15.6,22-9.5,5.5,4-6.4,19.3,1.3,23.3,7.7,4,12.1-3.9,17.2-1,5.5,3.2-5.3,14.5,2.4,15.4,7.7.8,15.8-41.6,29.2-33.1,13.2,8.4-21.3,42.2-16.5,47.3,4.8,5,21.7,31.6,14.3,54.4,0,0-42.5-87.5-125.9-70.9,0,0-23.7-4.6-12.5-17.3Z"/>
          <path class="st66" d="M361.9,256.6c8.7.2,26-3.5,39.6-2.7,13.7.8,25-1.7,29-6,4-4.3,13.6-15.6,22-9.5,5.5,4-6.4,19.3,1.3,23.3s12.1-3.9,17.2-1c5.5,3.2-5.3,14.5,2.4,15.4,7.7.8,20.9-38,29.2-33.1,10.3,6.2-21.3,42.2-16.5,47.3,4.8,5,21.7,31.6,14.3,54.4,0,0-42.5-87.5-125.9-70.9,0,0-23.7-4.6-12.5-17.3Z"/>
          <g>
            <path class="st25" d="M453.7,232.4c5.5,4-6.4,19.3,1.3,23.3.7.4,1.4.7,2.1.8-7.1-4.3,4.4-19.2-1-23.1-1-.7-2-1.2-3.1-1.5.2.1.5.3.7.5Z"/>
            <path class="st26" d="M474.5,270.1s0,0,0,0c-2.5-3,4.6-11.6,0-14.4-.6-.4-1.2-.6-1.9-.6,4.3,3.6-5.6,14.2,1.8,15Z"/>
            <path class="st23" d="M375.5,267.8s-2.8-.5-6-1.8c4.1,1.9,8.3,2.8,8.3,2.8,22.2-4.4,41.4-1.5,57.8,5.2-16.9-7.4-36.9-10.8-60.1-6.2Z"/>
            <path class="st24" d="M506,238c-.8-.5-1.6-.8-2.3-1,13.1,8.4-21.3,42.2-16.5,47.3,4.6,4.9,20.6,29.9,14.9,52.2,1.1,2.1,1.7,3.2,1.7,3.2,7.4-22.9-9.5-49.4-14.3-54.4-4.8-5,29.7-38.9,16.5-47.3Z"/>
          </g>
          <path class="st44" d="M439.2,422.7c-41.2,36.6-63.3,55-93.3,31.2-21.6-17.1-3.9-51.7-10-81.8-5.8-28.4-18.5-62,36.2-96.1,67.3-42,140.4,22.8,131.2,78.8-8.1,49.2-40.5,47-64.1,67.9Z"/>
          <path class="st72" d="M342.3,378.9c-5.8-28.4-18.5-62,36.2-96.1,38.8-24.2,79.7-12.9,105.4,11.8-25-29.3-71.4-48-113.7-21.6-54.7,34.1-40.2,70.6-34.5,99,6.1,30.2-11.5,64.7,10,81.8.2.2.4.3.7.5-12.1-18.4,1.2-48.7-4.2-75.5Z"/>
          <path class="st21" d="M411.9,436.9c12.4,4.7,28.6,4.1,32.6,13.4,4,9.3,4.5,38.6,17,34.1,10.4-3.8-5.6-31.8.9-37.8,5.7-5.3,10.2.1,14.3-3.4,3.8-3.2-1.2-9.8,3.7-15.7,6.1-7.4,27.6.5,25.9-8.5-.9-4.9-14.2,4.9-22.1-4.5-7.2-8.6,2.2-18.3-16.3-24.2s-36.1,6.5-38.4,13.7c-2.4,7.2-17.5,32.9-17.5,32.9Z"/>
          <g>
            <path class="st51" d="M431.1,408c2.4-7.2,19.9-19.6,38.4-13.7,5.8,1.9,8.9,4.1,10.6,6.6-1-4-3.4-7.8-12.3-10.6-18.5-5.9-36.1,6.5-38.4,13.7-2.4,7.2-17.5,32.9-17.5,32.9,1.1.4,2.2.8,3.4,1.1,4-6.9,13.9-24.3,15.8-30.1Z"/>
            <path class="st47" d="M485.9,418.5c6.2,7.4,15.8,2.8,20,3,.4-.6.5-1.5.3-2.6-.9-4.9-14.2,4.9-22.1-4.5-.4-.5-.7-.9-1-1.4.5,1.8,1.2,3.6,2.7,5.4Z"/>
            <path class="st53" d="M452.5,479.8c-2.9-8.3-4-20.2-6.3-25.5-.2-.6-.5-1.1-.9-1.6,2.1,7.2,3.4,20,7.2,27.1Z"/>
          </g>
          <g>
            <path class="st22" d="M462.3,480.3c-12.5,4.5-13-24.8-17-34.1-3.9-9-19.2-8.7-31.4-12.9-1.3,2.2-2.1,3.6-2.1,3.6,12.4,4.7,28.6,4.1,32.6,13.4,4,9.3,4.5,38.6,17,34.1,2.5-.9,3.5-3.3,3.6-6.4-.6,1.1-1.4,1.9-2.7,2.4Z"/>
            <path class="st27" d="M477.6,439.2c-4.2,3.5-8.6-2-14.3,3.4-1.1,1.1-1.6,2.8-1.6,4.9.2-.3.4-.7.7-.9,5.7-5.3,10.2.1,14.3-3.4,1.4-1.2,1.6-2.8,1.5-4.7-.2.2-.4.5-.6.7Z"/>
            <path class="st20" d="M506,418.3c-4.4,3.2-19.7-1-24.7,5.1-1.7,2-2.2,4.2-2.3,6.2.3-.7.8-1.5,1.4-2.2,6.1-7.4,27.6.5,25.9-8.5,0-.3-.1-.5-.2-.6Z"/>
          </g>
          <path class="st78" d="M415.8,378c-32-7.3-48.5-11.6-47.5-34.1.8-16.2,23.5-19.5,35.9-32.7,11.7-12.5,23.4-30,58.9-15.4,43.6,17.9,37.9,75.2,7.6,89.9-26.5,12.9-36.7-3.4-55-7.6Z"/>
          <path class="st77" d="M414.2,373.4c-28.3-6.5-42.9-10.3-42.1-30,.6-14.1,20.7-16.9,31.6-28.4,10.3-10.8,20.6-26.1,52-13.2,38.6,15.9,33.8,65.8,7.2,78.4-23.4,11.1-32.5-3.1-48.6-6.9Z"/>
          <path class="st19" d="M458.3,302.8c-11.2-4.6-19.5-5.3-26-3.9,4.8.4,10.3,1.8,16.8,4.4,36,14.8,31.3,62.1,6.3,74.3-3.4,1.6-6.4,2.7-9.2,3.3,5.1.6,11-.2,18.4-3.8,25-12.1,29.7-59.5-6.3-74.3Z"/>
          <path class="st62" d="M426.7,378c-30.4.3-46.2,0-50-20.5-2.8-14.7,17-22.6,25.3-37.2,7.8-13.7,14.6-32,49.7-26.5,43.1,6.8,50.2,59.5,26.2,79.2-21.1,17.3-33.8,4.8-51.1,5Z"/>
          <path class="st61" d="M428.1,382.2c-30.4.3-46.2,0-50-20.5-2.8-14.7,17-22.6,25.3-37.2,7.8-13.7,14.6-32,49.7-26.5,43.1,6.8,50.2,59.5,26.2,79.2-21.1,17.3-33.8,4.8-51.1,5Z"/>
          <path class="st68" d="M353.1,388c-1.7,14.3-25.5,38.1-11.1,59.5,16.3,24.2,57.4-4.8,71.4-6.2,16.8-1.7,46.2,8.9,53.6-9,7.9-18.9-12.3-26.4-3.8-47.2,8.5-20.8-8-39.6-27.8-30.1-18.9,9.1-46.6-24.6-69.3-14.5-22.7,10.1-12.2,40.1-13.1,47.5Z"/>
          <path class="st76" d="M349.9,380.8c-1.5,12.1-21.6,32.3-9.4,50.4,13.8,20.5,48.6-4.1,60.4-5.3,14.2-1.4,39.1,7.5,45.4-7.6,6.7-16-10.4-22.3-3.2-40,7.2-17.6-6.8-33.5-23.5-25.5-16,7.7-39.5-20.8-58.7-12.3-19.2,8.5-10.3,33.9-11.1,40.2Z"/>
          <path class="st64" d="M349.3,388c.7,12.2-15.6,35.5-.4,51.3,17.2,17.8,47.1-12.5,58.6-15.8,13.7-3.9,39.8.5,43.4-15.4,3.8-16.9-14.1-20.2-10.2-38.8,4-18.6-12.6-31.8-27.6-21-14.4,10.4-42.5-13.6-59.9-1.9-17.4,11.7-4.2,35.2-3.9,41.5Z"/>
          <path class="st65" d="M353.3,396c1,14.7-17.1,42.6.4,61.9,19.8,21.7,53.3-14.3,66.2-18,15.5-4.4,45.2,1.4,49-17.8,4-20.3-16.4-24.6-12.2-47,4.2-22.4-14.8-38.6-31.7-25.9-16.2,12.3-48.5-17.2-68-3.3-19.6,13.9-4.1,42.5-3.6,50.1Z"/>
          <path class="st75" d="M416.1,356.8c-14.5-5.6-30.9-17.9-45.6-14.9,15.6,1.3,32.5,17.3,45.6,14.9Z"/>
          <path class="st28" d="M348.7,432.9c15.1-3.8,35.5-3.1,45.9-14-13.5,7.9-36.6,4.5-45.9,14Z"/>
          <path class="st29" d="M415.3,429.3c-5.2-.5-10.2-.9-14.1-.6-2.8.3-7.9,2.4-13.3,4.7-14.4,6-35.7,14.9-47.5,2.2.5,3.7,1.8,7.2,3.9,10.4,10.5,15.6,34.1,5.7,51.3-1.5,7.1-3,13.2-5.5,17.4-5.9,5.2-.5,11.3,0,17.8.7,14.3,1.3,29.1,2.7,33.5-7.9,3.4-8.1.9-13.7-1.9-20.2-3.1-7.1-6.7-15.2-1.9-26.9,3.6-8.9,2.4-18-3.1-23.8-3.7-3.8-8.6-5.5-14-4.8,4.8,6.3,5.7,15.3,2.2,24-3.2,7.9-1,13,1.5,18.8,2.5,5.8,5.4,12.3,1.6,21.2-5.2,12.6-20.3,11.1-33.7,9.9Z"/>
          <path class="st11" d="M352.3,392.3c2.5-36.4-23-55.4-25.8-85.8-2.8-30.4,17.5-63.9,66.7-54.2,49.2,9.7,45,46.1,38.9,55.2-11.2,16.6-24.9,14.3-35.1,13.1-12.2-1.4-46.1-20.4-30.9,3.4,15.2,23.8-6.4,63.8-13.8,68.4Z"/>
          <path class="st81" d="M354,356.8c-3.5-19.5-24.8-39.7-19.1-66.2,5.7-26.5,35.3-47.9,76.1-23.6,11.2,7.4,18.6,22.3,9.9,33.7-12.5,16.3-43.2-8.4-58.2,0-15,8.5,5.7,41.4-8.7,56.1Z"/>
          <path class="st67" d="M359.1,370.5c2-30-18.9-45.6-21.2-70.7-2.3-25.1,14.4-52.6,55-44.6,40.6,8,37,38,32,45.4-9.2,13.7-20.5,11.8-28.9,10.8-10-1.2-38-16.8-25.5,2.8,12.5,19.6-5.3,52.6-11.4,56.4Z"/>
          <path class="st74" d="M442.8,343.4c-9.5-2.2-14.4-3.4-14.1-10.2.2-4.8,7-5.8,10.7-9.7,3.5-3.7,7-8.9,17.5-4.6,13,5.3,11.3,22.4,2.3,26.7-7.9,3.8-10.9-1-16.4-2.3Z"/>
          <path class="st34" d="M418.2,292.3c-2.3,8.3-22.1,11.4-31.9,3.3-6.9-5.7-16.9-17.9-24.6-15.5,6.3-17.9,64.2-15.2,56.5,12.2Z"/>
          <path class="st38" d="M376.8,342.7c-3.1-13.3-8.8-20.5-6-23.8,4.5-5.4,24.7,12.2,44.7,4.7,20-7.5,42.5,1.4,35.3,12.8-7.2,11.3-28.2,11-29.4,24.9-1.3,14-1.5,17-4.1,18.1-4.3,1.8-11.9-14.7-19-9.2-8.7,6.8-16.9,32.7-27.8,25.6-11.6-7.5,11.4-30.9,6.3-53.1Z"/>
          <path class="st43" d="M382.6,391.6c3.3-10.7,11.7-25.5,8.4-39.8-3.1-13.3-8.8-20.5-6-23.8,4.5-5.4,24.7,12.2,44.7,4.7,7.7-2.9,15.7-3.3,22.3-2.2-2.1-8.2-20.1-13.1-36.4-6.9-20,7.5-40.2-10-44.7-4.7-2.8,3.3,2.9,10.5,6,23.8,5.1,22.1-17.9,45.5-6.3,53.1,4.4,2.9,8.4.3,12.1-4.2Z"/>
          <path class="st30" d="M384.4,348.5c-3.1-13.3-8.8-20.5-6-23.8,4.5-5.4,24.7,12.2,44.7,4.7,10.1-3.8,20.9-3.4,28.1-.6-4-7.1-20.6-11.5-35.7-5.9-20,7.5-40.2-9.3-44.7-3.9-2.8,3.3,2.9,10.5,6,23.8,5.1,22.1-17.9,45.5-6.3,53.1,1.6,1,3,1.3,4.5,1.2-2-10.2,13.8-29.8,9.4-48.5Z"/>
          <g>
            <ellipse class="st49" cx="432.9" cy="457.3" rx="14.2" ry="16.1" transform="translate(-25 25) rotate(-3.2)"/>
            <ellipse class="st48" cx="431.8" cy="455.3" rx="12.4" ry="14.1" transform="translate(-24.9 25) rotate(-3.2)"/>
            <ellipse class="st12" cx="431.8" cy="455.3" rx="9.5" ry="11.2" transform="translate(-24.9 25) rotate(-3.2)"/>
            <ellipse class="st7" cx="431.4" cy="454" rx="8.7" ry="9.8" transform="translate(-24.8 24.9) rotate(-3.2)"/>
            <ellipse class="st32" cx="431.7" cy="456.7" rx="11.1" ry="12.7" transform="translate(-79.3 90.9) rotate(-11)"/>
          </g>
          <g>
            <ellipse class="st8" cx="490.6" cy="408.5" rx="4.7" ry="5.4" transform="translate(-132.4 269) rotate(-27.2)"/>
            <path class="st33" d="M492.2,406.2c.9,1.8.4,3.8-1.2,4.6s-3.5,0-4.4-1.7c-.9-1.8-.4-3.8,1.2-4.6s3.5,0,4.4,1.7Z"/>
          </g>
          <g>
            <ellipse class="st9" cx="478.8" cy="249.7" rx="6.1" ry="4.7" transform="translate(-9.4 480.6) rotate(-52.8)"/>
            <path class="st37" d="M476,249.4c1.4-1.8,3.6-2.4,5-1.3,1.4,1.1,1.4,3.4,0,5.1s-3.6,2.4-5,1.3c-1.4-1.1-1.4-3.4,0-5.1Z"/>
          </g>
          <g>
            <ellipse class="st16" cx="404.7" cy="230.3" rx="6.1" ry="7.7" transform="translate(-23.3 413.8) rotate(-52.8)"/>
            <path class="st59" d="M400.7,229c1.4-1.8,4.3-1.8,6.6-.1,2.3,1.7,3,4.6,1.6,6.3-1.4,1.8-4.3,1.8-6.6.1-2.3-1.7-3-4.6-1.6-6.3Z"/>
          </g>
          <g>
            <ellipse class="st17" cx="368.3" cy="348.6" rx="4.7" ry="5.3" transform="translate(-99.5 153) rotate(-20.7)"/>
            <ellipse class="st58" cx="369.1" cy="347.5" rx="3.1" ry="3.6" transform="translate(-99.1 153.1) rotate(-20.7)"/>
          </g>
          <g>
            <ellipse class="st14" cx="451.4" cy="421.8" rx="11.9" ry="13.9" transform="translate(-165.4 386.6) rotate(-39.8)"/>
            <ellipse class="st57" cx="452.2" cy="418.5" rx="8" ry="9.3" transform="translate(-163.1 386.4) rotate(-39.8)"/>
          </g>
          <g>
            <ellipse class="st10" cx="390.6" cy="320.7" rx="9.7" ry="10.8" transform="translate(-114.8 317.2) rotate(-39)"/>
            <ellipse class="st36" cx="389.9" cy="323.3" rx="6.5" ry="7.2" transform="translate(-116.6 317.4) rotate(-39)"/>
          </g>
          <g>
            <ellipse class="st15" cx="358.3" cy="413.3" rx="19.7" ry="17.8" transform="translate(-172.1 546.9) rotate(-63.2)"/>
            <ellipse class="st13" cx="360.8" cy="415.8" rx="16.9" ry="15.2" transform="translate(-188 373.2) rotate(-44.6)"/>
            <ellipse class="st70" cx="356.5" cy="415" rx="11.3" ry="10.1" transform="translate(-188.7 370) rotate(-44.6)"/>
          </g>
          <path class="st56" d="M453.8,278.7c30,9,69.5,64.9,25.7,112.9,0,0,40.8-61.2-25.7-112.9Z"/>
          <path class="st60" d="M448.7,443.4s6,4.7,10.6,2.9c4.6-1.8,5.2-2.6,9.2-3.1,4-.5,9.8-5,7.8-11.3-2.1-6.3,2.3-6.3,8.7-7.2,6.4-.9-3.2-2.8-4.1-6.8-.9-4-5.3-19.9-13.9-16.2-8.6,3.7-2.2,5.4-4.1,11-1.9,5.6,1.4,7.6-9.1,8.8-10.5,1.1-16.8-1-13.2,5.2,3.6,6.2-16.4,14.9,8.2,16.7Z"/>
          <path class="st31" d="M489.2,266.7c-1.5-1.2,6-23.5,10.9-25.9,5.8-2.8,8.8,4.9,3.7,9.8-5.1,4.9-14.1,16.4-14.6,16.1Z"/>
        </g>
        <g>
          <g>
            <g class="st0">
              <path class="st18" d="M323,331.5v-39h16.9c3.5,0,6.5.6,9,1.7,2.5,1.1,4.5,2.8,5.8,4.9,1.4,2.1,2.1,4.6,2.1,7.6s-.7,5.4-2.1,7.5c-1.4,2.1-3.3,3.7-5.8,4.9-2.5,1.1-5.5,1.7-9,1.7h-11.9l4-4.1v14.8h-9ZM332,317.7l-4-4.3h11.4c2.8,0,4.9-.6,6.2-1.8,1.4-1.2,2.1-2.8,2.1-5s-.7-3.8-2.1-5c-1.4-1.2-3.5-1.8-6.2-1.8h-11.4l4-4.3v22.1Z"/>
              <path class="st18" d="M356.1,331.5l17.4-39h8.9l17.4,39h-9.5l-14.2-34.4h3.6l-14.3,34.4h-9.2ZM364.8,323.2l2.4-6.8h20l2.4,6.8h-24.9Z"/>
              <path class="st18" d="M403.9,331.5v-39h9v39h-9Z"/>
              <path class="st18" d="M422.1,331.5v-39h7.5l23,28.1h-3.6v-28.1h8.9v39h-7.4l-23-28.1h3.6v28.1h-8.9Z"/>
              <path class="st18" d="M475.2,331.5v-31.6h-12.5v-7.3h34v7.3h-12.5v31.6h-9Z"/>
            </g>
            <g class="st2">
              <path class="st18" d="M323,371.3v-36.5h7l15.5,25.7h-3.7l15.3-25.7h6.9v36.5c.1,0-7.8,0-7.8,0v-24.3c0,0,1.4,0,1.4,0l-12.2,20.5h-3.8l-12.4-20.5h1.8v24.3h-7.9Z"/>
              <path class="st18" d="M389,372c-5.2,0-9.2-1.4-12.1-4.3s-4.4-7-4.4-12.3v-20.4h8.4v20.1c0,3.5.7,6,2.1,7.5,1.4,1.5,3.4,2.3,6,2.3s4.6-.8,6-2.3c1.4-1.5,2.1-4,2.1-7.5v-20.1h8.3v20.4c0,5.3-1.5,9.5-4.4,12.3s-7,4.3-12.1,4.3Z"/>
              <path class="st18" d="M425.8,372c-2.9,0-5.7-.4-8.4-1.2s-4.8-1.8-6.5-3l2.9-6.4c1.6,1.1,3.4,2,5.5,2.7,2.1.7,4.3,1.1,6.5,1.1s3-.2,4-.5c1-.3,1.8-.8,2.3-1.4.5-.6.7-1.3.7-2s-.4-1.7-1.1-2.3-1.8-1-3-1.4-2.6-.7-4.1-1c-1.5-.3-3-.7-4.5-1.2-1.5-.5-2.9-1.1-4.1-1.9-1.2-.8-2.3-1.8-3-3s-1.2-2.8-1.2-4.8.6-4,1.7-5.7,2.8-3.1,5.1-4.1c2.3-1,5.1-1.5,8.6-1.5s4.5.3,6.8.8c2.2.5,4.2,1.3,5.9,2.4l-2.6,6.4c-1.7-1-3.4-1.7-5.1-2.2-1.7-.5-3.4-.7-5-.7s-3,.2-4,.6c-1,.4-1.8.9-2.2,1.5-.5.6-.7,1.3-.7,2.1s.4,1.7,1.1,2.3,1.8,1,3,1.4c1.2.3,2.6.7,4.1,1,1.5.3,3,.7,4.5,1.2,1.5.5,2.9,1.1,4.1,1.8s2.3,1.8,3,3,1.2,2.8,1.2,4.7-.6,3.9-1.7,5.6-2.9,3.1-5.1,4.1c-2.3,1-5.1,1.6-8.6,1.6Z"/>
              <path class="st18" d="M447.1,371.3v-36.5h8.4v36.5h-8.4Z"/>
              <path class="st18" d="M481.6,372c-2.8,0-5.4-.5-7.8-1.4-2.4-.9-4.5-2.2-6.3-3.9-1.8-1.7-3.2-3.7-4.1-6-1-2.3-1.5-4.8-1.5-7.6s.5-5.3,1.5-7.6c1-2.3,2.4-4.3,4.2-6,1.8-1.7,3.9-3,6.3-3.9,2.4-.9,5-1.4,7.9-1.4s6,.5,8.6,1.6c2.6,1.1,4.7,2.7,6.4,4.8l-5.4,5c-1.2-1.4-2.6-2.5-4.2-3.2-1.5-.7-3.2-1.1-5-1.1s-3.3.3-4.7.8-2.7,1.4-3.7,2.4c-1,1-1.8,2.3-2.4,3.7-.6,1.4-.9,3-.9,4.7s.3,3.3.9,4.7c.6,1.4,1.4,2.7,2.4,3.7,1,1,2.3,1.8,3.7,2.4,1.4.6,3,.8,4.7.8s3.5-.4,5-1.1c1.5-.7,2.9-1.8,4.2-3.3l5.4,5c-1.7,2.1-3.9,3.7-6.4,4.8-2.6,1.1-5.4,1.7-8.6,1.7Z"/>
            </g>
            <g class="st1">
              <path class="st18" d="M326.7,390.6h-3.7v-15.8h12v2.9h-8.3v12.9ZM326.5,381.9h7.6v2.9h-7.6v-2.9Z"/>
              <path class="st18" d="M350.2,387.7h8.6v2.9h-12.3v-15.8h12v2.9h-8.3v10ZM349.9,381.1h7.6v2.9h-7.6v-2.9Z"/>
              <path class="st18" d="M376,390.9c-1.3,0-2.5-.2-3.6-.5-1.2-.3-2.1-.8-2.8-1.3l1.2-2.8c.7.5,1.5.9,2.4,1.2.9.3,1.9.5,2.8.5s1.3,0,1.8-.2c.4-.1.8-.3,1-.6.2-.3.3-.6.3-.9s-.2-.8-.5-1c-.3-.2-.8-.5-1.3-.6s-1.1-.3-1.8-.5-1.3-.3-2-.5c-.7-.2-1.3-.5-1.8-.8-.5-.3-1-.8-1.3-1.3s-.5-1.2-.5-2.1.2-1.7.7-2.5c.5-.7,1.2-1.3,2.2-1.8,1-.4,2.2-.7,3.7-.7s2,.1,2.9.4c1,.2,1.8.6,2.6,1.1l-1.1,2.8c-.7-.4-1.5-.7-2.2-.9-.7-.2-1.5-.3-2.2-.3s-1.3,0-1.7.2-.8.4-1,.6c-.2.3-.3.6-.3.9s.2.7.5,1,.8.4,1.3.6c.5.2,1.1.3,1.8.5.7.2,1.3.3,2,.5.7.2,1.3.5,1.8.8.5.3,1,.8,1.3,1.3s.5,1.2.5,2.1-.2,1.7-.7,2.4c-.5.7-1.2,1.3-2.2,1.8-1,.5-2.2.7-3.7.7Z"/>
              <path class="st18" d="M397.4,390.6v-12.9h-5.1v-3h13.8v3h-5.1v12.9h-3.7Z"/>
              <path class="st18" d="M417.1,390.6v-15.8h3.7v15.8h-3.7Z"/>
              <path class="st18" d="M438.2,390.6l-6.8-15.8h4l6,14h-2.3l6.1-14h3.6l-6.9,15.8h-3.6Z"/>
              <path class="st18" d="M456.5,390.6l7.1-15.8h3.6l7.1,15.8h-3.8l-5.8-14h1.4l-5.8,14h-3.8ZM460,387.2l1-2.8h8.1l1,2.8h-10.1Z"/>
              <path class="st18" d="M485,390.6v-15.8h3.7v12.9h7.9v3h-11.6Z"/>
            </g>
          </g>
          <g>
            <path class="st18" d="M333.6,189.2v-8.6h1.6l3.6,6h-.9l3.6-6h1.6v8.6s-1.8,0-1.8,0v-5.7s.3,0,.3,0l-2.9,4.8h-.9l-2.9-4.8h.4v5.7h-1.9Z"/>
            <path class="st18" d="M344.2,189.2l3.8-8.6h2l3.8,8.6h-2.1l-3.1-7.6h.8l-3.1,7.6h-2ZM346.1,187.4l.5-1.5h4.4l.5,1.5h-5.5Z"/>
            <path class="st18" d="M356.4,189.2v-3.5l.5,1.2-3.8-6.3h2.1l2.9,4.8h-1.2l2.9-4.8h1.9l-3.8,6.3.4-1.2v3.5h-2Z"/>
          </g>
          <g>
            <path class="st6" d="M320.6,189.2v-7.8l.9.9h-2.6v-1.6h3.7v8.6h-2Z"/>
            <path class="st6" d="M327.8,189.4c-.7,0-1.3-.2-1.9-.5-.6-.3-1-.8-1.3-1.5s-.5-1.5-.5-2.4.2-1.7.5-2.4c.3-.7.8-1.2,1.3-1.5.6-.3,1.2-.5,1.9-.5s1.3.2,1.9.5c.6.3,1,.8,1.3,1.5.3.7.5,1.5.5,2.4s-.2,1.7-.5,2.4-.8,1.2-1.3,1.5c-.6.3-1.2.5-1.9.5ZM327.8,187.7c.3,0,.6,0,.9-.3.2-.2.4-.5.6-.9.1-.4.2-.9.2-1.6s0-1.2-.2-1.6c-.1-.4-.3-.7-.6-.9-.2-.2-.5-.3-.9-.3s-.6,0-.9.3c-.2.2-.4.5-.6.9-.1.4-.2.9-.2,1.6s0,1.2.2,1.6c.1.4.3.7.6.9s.5.3.9.3Z"/>
          </g>
          <g>
            <rect class="st6" x="307.4" y="180.7" width="8.8" height=".2"/>
            <rect class="st6" x="311.9" y="182" width="4.2" height=".2"/>
          </g>
          <g>
            <path class="st18" d="M466.9,189.2h-2v-8.6h6.5v1.6h-4.5v7ZM466.8,184.5h4.1v1.6h-4.1v-1.6Z"/>
            <path class="st18" d="M472.9,189.2v-8.6h3.7c.8,0,1.4.1,2,.4.6.2,1,.6,1.3,1.1.3.5.5,1,.5,1.7s-.2,1.2-.5,1.6c-.3.5-.7.8-1.3,1.1-.6.2-1.2.4-2,.4h-2.6l.9-.9v3.3h-2ZM474.9,186.2l-.9-.9h2.5c.6,0,1.1-.1,1.4-.4.3-.3.5-.6.5-1.1s-.2-.8-.5-1.1-.8-.4-1.4-.4h-2.5l.9-.9v4.9ZM478.3,189.2l-2.1-3.1h2.1l2.2,3.1h-2.1Z"/>
            <path class="st18" d="M482,189.2v-8.6h2v8.6h-2Z"/>
            <path class="st18" d="M486.1,189.2v-8.6h3.9c.9,0,1.7.2,2.5.5s1.3.8,1.7,1.5.6,1.4.6,2.3-.2,1.6-.6,2.3c-.4.6-1,1.1-1.7,1.5s-1.5.5-2.5.5h-3.9ZM488.1,187.6h1.8c.6,0,1.1-.1,1.5-.3.4-.2.7-.5,1-.9s.3-.9.3-1.4-.1-1-.3-1.4c-.2-.4-.6-.7-1-.9-.4-.2-.9-.3-1.5-.3h-1.8v5.3Z"/>
            <path class="st18" d="M495.1,189.2l3.8-8.6h2l3.8,8.6h-2.1l-3.1-7.6h.8l-3.1,7.6h-2ZM497,187.4l.5-1.5h4.4l.5,1.5h-5.5Z"/>
            <path class="st18" d="M507.3,189.2v-3.5l.5,1.2-3.8-6.3h2.1l2.9,4.8h-1.2l2.9-4.8h1.9l-3.8,6.3.4-1.2v3.5h-2Z"/>
          </g>
          <g>
            <g>
              <rect class="st6" x="336" y="496.1" width="8.8" height=".8"/>
              <rect class="st6" x="340.5" y="498.6" width="4.2" height=".8"/>
            </g>
            <g>
              <path class="st18" d="M348.8,504.6v-8.6h3.4c.9,0,1.7.2,2.4.6.7.4,1.2.9,1.6,1.5.4.6.6,1.4.6,2.2s-.2,1.6-.6,2.2c-.4.6-.9,1.1-1.6,1.5-.7.4-1.5.5-2.4.5h-3.4ZM349.5,504h2.7c.8,0,1.5-.2,2.1-.5.6-.3,1.1-.8,1.4-1.3.3-.6.5-1.2.5-1.9s-.2-1.4-.5-1.9c-.3-.6-.8-1-1.4-1.3-.6-.3-1.3-.5-2.1-.5h-2.7v7.4Z"/>
              <path class="st18" d="M359.7,504.6c-.5,0-.9-.1-1.3-.3-.4-.2-.7-.5-1-.9l.4-.4c.2.4.5.6.8.8.3.2.7.3,1.1.3,1.1,0,1.7-.7,1.7-2v-5.5h-3.2v-.6h3.8v6c0,.9-.2,1.5-.6,1.9-.4.4-1,.6-1.7.6Z"/>
              <path class="st18" d="M368.1,504.6v-8.6h1.6l5,6.2h-.8v-6.2h2v8.6h-1.6l-5.1-6.2h.8v6.2h-2Z"/>
              <path class="st18" d="M377,504.6l3.8-8.6h2l3.8,8.6h-2.1l-3.1-7.6h.8l-3.1,7.6h-2ZM378.9,502.7l.5-1.5h4.4l.5,1.5h-5.5Z"/>
              <path class="st18" d="M387.6,504.6v-8.6h1.6l3.6,6h-.9l3.6-6h1.6v8.6s-1.8,0-1.8,0v-5.7s.3,0,.3,0l-2.9,4.8h-.9l-2.9-4.8h.4v5.7h-1.9Z"/>
              <path class="st18" d="M401.4,503h4.7v1.6h-6.6v-8.6h6.5v1.6h-4.5v5.4ZM401.2,499.5h4.1v1.5h-4.1v-1.5Z"/>
            </g>
            <g>
              <g>
                <rect class="st6" x="414" y="496.1" width="8.8" height=".8"/>
                <rect class="st6" x="418.6" y="498.6" width="4.2" height=".8"/>
              </g>
              <g>
                <path class="st18" d="M426.9,504.6v-8.6h3.4c.9,0,1.7.2,2.4.6.7.4,1.2.9,1.6,1.5.4.6.6,1.4.6,2.2s-.2,1.6-.6,2.2c-.4.6-.9,1.1-1.6,1.5-.7.4-1.5.5-2.4.5h-3.4ZM427.5,504h2.7c.8,0,1.5-.2,2.1-.5.6-.3,1.1-.8,1.4-1.3s.5-1.2.5-1.9-.2-1.4-.5-1.9c-.3-.6-.8-1-1.4-1.3-.6-.3-1.3-.5-2.1-.5h-2.7v7.4Z"/>
                <path class="st18" d="M437.7,504.6c-.5,0-.9-.1-1.3-.3s-.7-.5-1-.9l.4-.4c.2.4.5.6.8.8s.7.3,1.1.3c1.1,0,1.7-.7,1.7-2v-5.5h-3.2v-.6h3.8v6c0,.9-.2,1.5-.6,1.9-.4.4-1,.6-1.7.6Z"/>
                <path class="st18" d="M446.2,504.6v-8.6h1.6l5,6.2h-.8v-6.2h2v8.6h-1.6l-5.1-6.2h.8v6.2h-2Z"/>
                <path class="st18" d="M455,504.6l3.8-8.6h2l3.8,8.6h-2.1l-3.1-7.6h.8l-3.1,7.6h-2ZM457,502.7l.5-1.5h4.4l.5,1.5h-5.5Z"/>
                <path class="st18" d="M465.7,504.6v-8.6h1.6l3.6,6h-.9l3.6-6h1.6v8.6s-1.8,0-1.8,0v-5.7s.3,0,.3,0l-2.9,4.8h-.9l-2.9-4.8h.4v5.7h-1.9Z"/>
                <path class="st18" d="M479.4,503h4.7v1.6h-6.6v-8.6h6.5v1.6h-4.5v5.4ZM479.3,499.5h4.1v1.5h-4.1v-1.5Z"/>
              </g>
            </g>
          </g>
          <g>
            <rect class="st6" x="452.5" y="180.7" width="8.8" height=".2"/>
            <rect class="st6" x="457.1" y="182" width="4.2" height=".2"/>
          </g>
          <g>
            <g>
              <path class="st18" d="M512.6,490.5l-2.9.9v-.7l2.5-.8v.3l-2.5-.8v-.6l2.5-.8v.3l-2.5-.8v-.6l2.9.9v.7l-2.2.7v-.2l2.2.7v.7Z"/>
              <path class="st18" d="M512.6,484.1l-2.9.9v-.7l2.5-.8v.3l-2.5-.8v-.6l2.5-.8v.3l-2.5-.8v-.6l2.9.9v.7l-2.2.7v-.2l2.2.7v.7Z"/>
              <path class="st18" d="M512.6,477.8l-2.9.9v-.7l2.5-.8v.3l-2.5-.8v-.6l2.5-.8v.3l-2.5-.8v-.6l2.9.9v.7l-2.2.7v-.2l2.2.7v.7Z"/>
              <path class="st18" d="M512.7,472c0,.1,0,.2-.1.3,0,0-.2.1-.3.1s-.2,0-.3-.1c0,0-.1-.2-.1-.3s0-.2.1-.3c0,0,.2-.1.3-.1s.2,0,.3.1c0,0,.1.2.1.3Z"/>
              <path class="st18" d="M512.6,469l-2.9.9v-.7l2.5-.8v.3l-2.5-.8v-.6l2.5-.8v.3l-2.5-.8v-.6l2.9.9v.7l-2.2.7v-.2l2.2.7v.7Z"/>
              <path class="st18" d="M512.1,462.7v-1.6h.5v2.2h-2.9v-2.2h.5v1.5h1.8ZM510.9,462.8v-1.4h.5v1.4h-.5Z"/>
              <path class="st18" d="M512.6,459h-2.9v-1.4c0-.4,0-.6.2-.8.1-.2.3-.3.5-.3s.3,0,.4.1c.1,0,.2.2.3.3,0,.1,0,.3,0,.4h-.2c0-.3,0-.4,0-.6s.1-.2.3-.3c.1,0,.3-.1.4-.1.2,0,.4,0,.6.3.1.2.2.5.2.9v1.5ZM512.1,458.4v-.8c0-.2,0-.3,0-.4,0,0-.1-.1-.3-.1s-.2,0-.3.1c0,0,0,.2,0,.4v.8h-.5v-.7c0-.2,0-.3,0-.4,0,0-.1-.1-.3-.1s-.2,0-.3.1c0,0,0,.2,0,.4v.7h1.9Z"/>
              <path class="st18" d="M512.7,454.1c0,.1,0,.2-.1.3,0,0-.2.1-.3.1s-.2,0-.3-.1c0,0-.1-.2-.1-.3s0-.2.1-.3c0,0,.2-.1.3-.1s.2,0,.3.1c0,0,.1.2.1.3Z"/>
              <path class="st18" d="M512.7,450.3c0,.2,0,.4-.1.6,0,.2-.2.4-.3.5-.1.1-.3.2-.5.3-.2,0-.4.1-.6.1s-.4,0-.6-.1c-.2,0-.3-.2-.5-.3-.1-.1-.2-.3-.3-.5,0-.2-.1-.4-.1-.6s0-.5.1-.7c0-.2.2-.4.4-.5l.4.4c-.1,0-.2.2-.3.3,0,.1,0,.2,0,.4s0,.3,0,.4c0,.1.1.2.2.3,0,0,.2.1.3.2s.2,0,.4,0,.3,0,.4,0,.2-.1.3-.2.1-.2.2-.3c0-.1,0-.2,0-.4s0-.3,0-.4c0-.1-.1-.2-.3-.3l.4-.4c.2.1.3.3.4.5,0,.2.1.4.1.7Z"/>
              <path class="st18" d="M512.7,445.7c0,.2,0,.4-.1.6,0,.2-.2.4-.3.5-.1.1-.3.2-.5.3-.2,0-.4.1-.6.1s-.4,0-.6-.1c-.2,0-.3-.2-.5-.3-.1-.1-.2-.3-.3-.5,0-.2-.1-.4-.1-.6s0-.4.1-.6c0-.2.2-.4.3-.5.1-.1.3-.2.5-.3.2,0,.4-.1.6-.1s.4,0,.6.1c.2,0,.3.2.5.3.1.1.2.3.3.5,0,.2.1.4.1.6ZM512.1,445.7c0-.1,0-.2,0-.4,0-.1-.1-.2-.2-.3,0,0-.2-.1-.3-.2s-.2,0-.4,0-.3,0-.4,0-.2.1-.3.2c0,0-.1.2-.2.3,0,.1,0,.2,0,.4s0,.2,0,.4c0,.1.1.2.2.3,0,0,.2.1.3.2s.2,0,.4,0,.3,0,.4,0c.1,0,.2-.1.3-.2,0,0,.1-.2.2-.3,0-.1,0-.2,0-.4Z"/>
              <path class="st18" d="M512.6,442h-2.9v-.5l2-1.2v.3l-2-1.2v-.5h2.9s0,.6,0,.6h-1.9s0-.1,0-.1l1.6,1v.3l-1.6,1h0c0-.1,1.9-.1,1.9-.1v.6Z"/>
            </g>
            <g>
              <rect class="st6" x="505.9" y="499.8" width="8.8" height=".7" transform="translate(10.2 1010.5) rotate(-90)"/>
              <rect class="st6" x="510.2" y="497.6" width="4.2" height=".7" transform="translate(14.4 1010.2) rotate(-90)"/>
            </g>
          </g>
          <g>
            <path class="st18" d="M342.3,519.1v-2.9h.3v2.6h1.6v.3h-1.9Z"/>
            <path class="st18" d="M345.5,519.1c-.2,0-.4,0-.6-.1s-.3-.2-.4-.4c0-.2-.1-.4-.1-.6s0-.4.1-.6.2-.3.4-.4c.2,0,.3-.1.6-.1s.4,0,.6.1c.2,0,.3.2.4.4s.1.4.1.6,0,.4-.1.6c0,.2-.2.3-.4.4-.2,0-.4.1-.6.1ZM345.5,518.9c.2,0,.3,0,.4-.1.1,0,.2-.2.3-.3,0-.1.1-.3.1-.4s0-.3-.1-.4c0-.1-.2-.2-.3-.3s-.3-.1-.4-.1-.3,0-.4.1-.2.2-.3.3-.1.3-.1.4,0,.3.1.4.2.2.3.3c.1,0,.3.1.4.1Z"/>
            <path class="st18" d="M347.2,519.1v-2.1h.3v.6h0c0-.3.2-.4.3-.5.1,0,.3-.1.5-.1v.3s0,0,0,0c0,0,0,0,0,0-.2,0-.4,0-.5.2-.1.1-.2.3-.2.6v1.1h-.3Z"/>
            <path class="st18" d="M349.6,519.1c-.2,0-.4,0-.6-.1s-.3-.2-.4-.4c0-.2-.1-.4-.1-.6s0-.4.1-.6c0-.2.2-.3.4-.4.2,0,.3-.1.5-.1s.4,0,.5.1c.2,0,.3.2.4.4,0,.2.1.4.1.6s0,0,0,0c0,0,0,0,0,0h-1.9v-.2h1.7-.1c0,0,0-.2,0-.3,0-.1-.2-.2-.3-.3-.1,0-.2-.1-.4-.1s-.3,0-.4.1c-.1,0-.2.2-.3.3,0,.1,0,.3,0,.4h0c0,.2,0,.4.1.5,0,.1.2.2.3.3.1,0,.3.1.4.1s.3,0,.4,0,.2-.1.3-.2l.2.2c0,.1-.2.2-.4.3-.1,0-.3,0-.5,0Z"/>
            <path class="st18" d="M353.9,516.9c.2,0,.3,0,.5,0,.1,0,.2.2.3.3,0,.1.1.3.1.5v1.2h-.3v-1.2c0-.2,0-.4-.2-.5-.1-.1-.3-.2-.5-.2s-.3,0-.4,0c-.1,0-.2.1-.2.3,0,.1,0,.3,0,.4v1.1h-.3v-1.2c0-.2,0-.4-.2-.5-.1-.1-.3-.2-.5-.2s-.3,0-.4,0c-.1,0-.2.1-.3.3,0,.1,0,.3,0,.4v1.1h-.3v-2.1h.3v.6h0c0-.3.2-.4.3-.5.1,0,.3-.1.5-.1s.4,0,.5.2c.1.1.2.3.3.5h-.1c0-.2.2-.4.3-.5.2-.1.3-.2.6-.2Z"/>
            <path class="st18" d="M356.7,516.5c0,0-.1,0-.2,0,0,0,0,0,0-.1s0-.1,0-.1c0,0,0,0,.2,0s.1,0,.2,0c0,0,0,0,0,.1s0,.1,0,.2c0,0,0,0-.2,0ZM356.6,519.1v-2.1h.3v2.1h-.3Z"/>
            <path class="st18" d="M357.7,519.9v-2.9h.3v1.1s0,.4,0,.4v1.4h-.3ZM358.8,519.1c-.2,0-.4,0-.5-.1-.1,0-.3-.2-.4-.4,0-.2-.1-.4-.1-.6s0-.4.1-.6c0-.2.2-.3.4-.4.1,0,.3-.1.5-.1s.4,0,.5.1.3.2.4.4c0,.2.1.4.1.6s0,.4-.1.6-.2.3-.4.4-.3.1-.5.1ZM358.8,518.9c.2,0,.3,0,.4-.1.1,0,.2-.2.3-.3,0-.1.1-.3.1-.4s0-.3-.1-.4c0-.1-.2-.2-.3-.3-.1,0-.3-.1-.4-.1s-.3,0-.4.1c-.1,0-.2.2-.3.3s-.1.3-.1.4,0,.3.1.4.2.2.3.3c.1,0,.3.1.4.1Z"/>
            <path class="st18" d="M361,519.1c-.2,0-.3,0-.5,0-.2,0-.3-.1-.4-.2v-.2c.2,0,.3.1.5.2.1,0,.3,0,.4,0s.4,0,.4,0c0,0,.1-.1.1-.3s0-.1,0-.2-.1,0-.2-.1c0,0-.2,0-.3,0-.1,0-.2,0-.3,0s-.2,0-.3,0-.1,0-.2-.2,0-.2,0-.3,0-.2,0-.3c0,0,.2-.2.3-.2.1,0,.3,0,.5,0s.3,0,.4,0c.1,0,.3,0,.3.1v.2c-.2,0-.3-.1-.4-.1-.1,0-.2,0-.3,0-.2,0-.3,0-.4,0,0,0-.1.2-.1.3s0,.1,0,.2.1,0,.2.1c0,0,.2,0,.3,0,0,0,.2,0,.3,0,0,0,.2,0,.3,0,0,0,.1,0,.2.2s0,.2,0,.3,0,.2-.1.3c0,0-.2.2-.3.2-.1,0-.3,0-.5,0Z"/>
            <path class="st18" d="M363.3,519.1c-.2,0-.3,0-.5-.1-.1,0-.2-.2-.3-.3,0-.1-.1-.3-.1-.5v-1.2h.3v1.2c0,.2,0,.4.2.5.1.1.3.2.5.2s.3,0,.4,0c.1,0,.2-.2.3-.3s0-.3,0-.4v-1.1h.3v2.1h-.3v-.6h0c0,.3-.2.4-.3.5-.1,0-.3.1-.5.1Z"/>
            <path class="st18" d="M367.8,516.9c.2,0,.3,0,.5,0,.1,0,.2.2.3.3,0,.1.1.3.1.5v1.2h-.3v-1.2c0-.2,0-.4-.2-.5-.1-.1-.3-.2-.5-.2s-.3,0-.4,0c-.1,0-.2.1-.2.3,0,.1,0,.3,0,.4v1.1h-.3v-1.2c0-.2,0-.4-.2-.5-.1-.1-.3-.2-.5-.2s-.3,0-.4,0c-.1,0-.2.1-.3.3,0,.1,0,.3,0,.4v1.1h-.3v-2.1h.3v.6h0c0-.3.2-.4.3-.5.1,0,.3-.1.5-.1s.4,0,.5.2c.1.1.2.3.3.5h-.1c0-.2.2-.4.3-.5.2-.1.3-.2.6-.2Z"/>
            <path class="st18" d="M371.4,519.1c-.2,0-.4,0-.5-.1s-.3-.2-.4-.4c0-.2-.1-.4-.1-.6s0-.4.1-.6c0-.2.2-.3.4-.4s.3-.1.5-.1.4,0,.5.1c.1,0,.3.2.4.4,0,.2.1.4.1.6s0,.4-.1.6c0,.2-.2.3-.4.4-.1,0-.3.1-.5.1ZM371.4,518.9c.2,0,.3,0,.4-.1.1,0,.2-.2.3-.3,0-.1.1-.3.1-.4s0-.3-.1-.4c0-.1-.2-.2-.3-.3-.1,0-.3-.1-.4-.1s-.3,0-.4.1-.2.2-.3.3-.1.3-.1.4,0,.3.1.4.2.2.3.3c.1,0,.3.1.4.1ZM372.2,519.1v-1.1s0-.4,0-.4v-1.5h.3v3h-.3Z"/>
            <path class="st18" d="M374.2,519.1c-.2,0-.4,0-.6-.1s-.3-.2-.4-.4c0-.2-.1-.4-.1-.6s0-.4.1-.6.2-.3.4-.4c.2,0,.3-.1.6-.1s.4,0,.6.1c.2,0,.3.2.4.4s.1.4.1.6,0,.4-.1.6c0,.2-.2.3-.4.4-.2,0-.4.1-.6.1ZM374.2,518.9c.2,0,.3,0,.4-.1.1,0,.2-.2.3-.3,0-.1.1-.3.1-.4s0-.3-.1-.4c0-.1-.2-.2-.3-.3s-.3-.1-.4-.1-.3,0-.4.1-.2.2-.3.3-.1.3-.1.4,0,.3.1.4.2.2.3.3c.1,0,.3.1.4.1Z"/>
            <path class="st18" d="M375.9,519.1v-3h.3v3h-.3Z"/>
            <path class="st18" d="M377.9,519.1c-.2,0-.4,0-.6-.1s-.3-.2-.4-.4c0-.2-.1-.4-.1-.6s0-.4.1-.6.2-.3.4-.4c.2,0,.3-.1.6-.1s.4,0,.6.1c.2,0,.3.2.4.4s.1.4.1.6,0,.4-.1.6c0,.2-.2.3-.4.4-.2,0-.4.1-.6.1ZM377.9,518.9c.2,0,.3,0,.4-.1.1,0,.2-.2.3-.3,0-.1.1-.3.1-.4s0-.3-.1-.4c0-.1-.2-.2-.3-.3s-.3-.1-.4-.1-.3,0-.4.1-.2.2-.3.3-.1.3-.1.4,0,.3.1.4.2.2.3.3c.1,0,.3.1.4.1Z"/>
            <path class="st18" d="M379.5,519.1v-2.1h.3v.6h0c0-.3.2-.4.3-.5.1,0,.3-.1.5-.1v.3s0,0,0,0c0,0,0,0,0,0-.2,0-.4,0-.5.2-.1.1-.2.3-.2.6v1.1h-.3Z"/>
            <path class="st18" d="M382.8,519.1c-.2,0-.3,0-.5,0-.2,0-.3-.1-.4-.2v-.2c.2,0,.3.1.5.2.1,0,.3,0,.4,0s.4,0,.4,0c0,0,.1-.1.1-.3s0-.1,0-.2-.1,0-.2-.1c0,0-.2,0-.3,0-.1,0-.2,0-.3,0s-.2,0-.3,0-.1,0-.2-.2,0-.2,0-.3,0-.2,0-.3c0,0,.2-.2.3-.2.1,0,.3,0,.5,0s.3,0,.4,0c.1,0,.3,0,.3.1v.2c-.2,0-.3-.1-.4-.1-.1,0-.2,0-.3,0-.2,0-.3,0-.4,0,0,0-.1.2-.1.3s0,.1,0,.2.1,0,.2.1c0,0,.2,0,.3,0,0,0,.2,0,.3,0,0,0,.2,0,.3,0,0,0,.1,0,.2.2s0,.2,0,.3,0,.2-.1.3c0,0-.2.2-.3.2-.1,0-.3,0-.5,0Z"/>
            <path class="st18" d="M384.4,516.5c0,0-.1,0-.2,0,0,0,0,0,0-.1s0-.1,0-.1c0,0,0,0,.2,0s.1,0,.2,0c0,0,0,0,0,.1s0,.1,0,.2c0,0,0,0-.2,0ZM384.2,519.1v-2.1h.3v2.1h-.3Z"/>
            <path class="st18" d="M385,517.2v-.2h1.3v.2h-1.3ZM386,519.1c-.2,0-.4,0-.5-.2-.1-.1-.2-.3-.2-.5v-2h.3v2c0,.1,0,.2,0,.3s.2.1.3.1.2,0,.3-.1v.2c0,0,0,0-.1.1s-.2,0-.2,0Z"/>
            <path class="st18" d="M388.6,519.1c-.2,0-.3,0-.4,0-.1,0-.2-.1-.3-.2s0-.2,0-.3,0-.2,0-.3c0,0,.1-.2.3-.2.1,0,.3,0,.5,0h.7v.2h-.7c-.2,0-.3,0-.4.1,0,0-.1.2-.1.3s0,.2.1.3c0,0,.2.1.4.1s.3,0,.4-.1c.1,0,.2-.2.3-.3v.2c0,.1,0,.3-.2.3-.1,0-.3.1-.5.1ZM389.4,519.1v-.5h0v-.9c0-.2,0-.3-.2-.4-.1,0-.3-.1-.5-.1s-.3,0-.4,0-.2.1-.3.2v-.2c0,0,.1-.2.3-.2.2,0,.3,0,.5,0,.3,0,.5,0,.6.2.2.1.2.3.2.6v1.3h-.3Z"/>
            <path class="st18" d="M393.1,516.9c.2,0,.3,0,.5,0,.1,0,.2.2.3.3,0,.1.1.3.1.5v1.2h-.3v-1.2c0-.2,0-.4-.2-.5-.1-.1-.3-.2-.5-.2s-.3,0-.4,0c-.1,0-.2.1-.2.3,0,.1,0,.3,0,.4v1.1h-.3v-1.2c0-.2,0-.4-.2-.5-.1-.1-.3-.2-.5-.2s-.3,0-.4,0c-.1,0-.2.1-.3.3,0,.1,0,.3,0,.4v1.1h-.3v-2.1h.3v.6h0c0-.3.2-.4.3-.5.1,0,.3-.1.5-.1s.4,0,.5.2c.1.1.2.3.3.5h-.1c0-.2.2-.4.3-.5.2-.1.3-.2.6-.2Z"/>
            <path class="st18" d="M395.7,519.1c-.2,0-.4,0-.6-.1s-.3-.2-.4-.4c0-.2-.1-.4-.1-.6s0-.4.1-.6c0-.2.2-.3.4-.4.2,0,.3-.1.5-.1s.4,0,.5.1c.2,0,.3.2.4.4,0,.2.1.4.1.6s0,0,0,0c0,0,0,0,0,0h-1.9v-.2h1.7-.1c0,0,0-.2,0-.3,0-.1-.2-.2-.3-.3-.1,0-.2-.1-.4-.1s-.3,0-.4.1c-.1,0-.2.2-.3.3,0,.1,0,.3,0,.4h0c0,.2,0,.4.1.5,0,.1.2.2.3.3.1,0,.3.1.4.1s.3,0,.4,0,.2-.1.3-.2l.2.2c0,.1-.2.2-.4.3-.1,0-.3,0-.5,0Z"/>
            <path class="st18" d="M396.9,517.2v-.2h1.3v.2h-1.3ZM397.9,519.1c-.2,0-.4,0-.5-.2-.1-.1-.2-.3-.2-.5v-2h.3v2c0,.1,0,.2,0,.3s.2.1.3.1.2,0,.3-.1v.2c0,0,0,0-.1.1s-.2,0-.2,0Z"/>
            <path class="st18" d="M398.8,519.7l.2-.8v.2s0,0-.1,0,0,0,0-.2,0-.1,0-.2c0,0,0,0,.2,0s.1,0,.2,0c0,0,0,0,0,.2s0,0,0,0c0,0,0,0,0,0,0,0,0,0,0,0l-.2.6h-.2Z"/>
            <path class="st18" d="M401.7,519.1c-.2,0-.4,0-.6-.1-.2,0-.3-.2-.4-.4,0-.2-.1-.4-.1-.6s0-.4.1-.6.2-.3.4-.4c.2,0,.4-.1.6-.1s.3,0,.5.1c.1,0,.3.2.3.3h-.2c0,0-.2,0-.3,0-.1,0-.2,0-.4,0s-.3,0-.4.1c-.1,0-.2.2-.3.3s-.1.3-.1.4,0,.3.1.4.2.2.3.3c.1,0,.3.1.4.1s.2,0,.4,0c.1,0,.2-.1.3-.2h.2c0,.3-.2.4-.3.5-.1,0-.3.1-.5.1Z"/>
            <path class="st18" d="M404,519.1c-.2,0-.4,0-.6-.1s-.3-.2-.4-.4c0-.2-.1-.4-.1-.6s0-.4.1-.6.2-.3.4-.4c.2,0,.3-.1.6-.1s.4,0,.6.1c.2,0,.3.2.4.4s.1.4.1.6,0,.4-.1.6c0,.2-.2.3-.4.4-.2,0-.4.1-.6.1ZM404,518.9c.2,0,.3,0,.4-.1.1,0,.2-.2.3-.3,0-.1.1-.3.1-.4s0-.3-.1-.4c0-.1-.2-.2-.3-.3s-.3-.1-.4-.1-.3,0-.4.1-.2.2-.3.3-.1.3-.1.4,0,.3.1.4.2.2.3.3c.1,0,.3.1.4.1Z"/>
            <path class="st18" d="M406.8,516.9c.2,0,.3,0,.5,0,.1,0,.2.2.3.3,0,.1.1.3.1.5v1.2h-.3v-1.2c0-.2,0-.4-.2-.5-.1-.1-.3-.2-.5-.2s-.3,0-.4,0c-.1,0-.2.1-.3.3,0,.1,0,.3,0,.4v1.1h-.3v-2.1h.3v.6h0c0-.3.2-.4.3-.5.1,0,.3-.1.5-.1Z"/>
            <path class="st18" d="M409,519.1c-.2,0-.3,0-.5,0-.2,0-.3-.1-.4-.2v-.2c.2,0,.3.1.5.2.1,0,.3,0,.4,0s.4,0,.4,0c0,0,.1-.1.1-.3s0-.1,0-.2-.1,0-.2-.1c0,0-.2,0-.3,0-.1,0-.2,0-.3,0s-.2,0-.3,0-.1,0-.2-.2,0-.2,0-.3,0-.2,0-.3c0,0,.2-.2.3-.2.1,0,.3,0,.5,0s.3,0,.4,0c.1,0,.3,0,.3.1v.2c-.2,0-.3-.1-.4-.1-.1,0-.2,0-.3,0-.2,0-.3,0-.4,0,0,0-.1.2-.1.3s0,.1,0,.2.1,0,.2.1c0,0,.2,0,.3,0,0,0,.2,0,.3,0,0,0,.2,0,.3,0,0,0,.1,0,.2.2s0,.2,0,.3,0,.2-.1.3c0,0-.2.2-.3.2-.1,0-.3,0-.5,0Z"/>
            <path class="st18" d="M411.3,519.1c-.2,0-.4,0-.6-.1s-.3-.2-.4-.4c0-.2-.1-.4-.1-.6s0-.4.1-.6c0-.2.2-.3.4-.4.2,0,.3-.1.5-.1s.4,0,.5.1.3.2.4.4c0,.2.1.4.1.6s0,0,0,0c0,0,0,0,0,0h-1.9v-.2h1.7-.1c0,0,0-.2,0-.3,0-.1-.2-.2-.3-.3-.1,0-.2-.1-.4-.1s-.3,0-.4.1c-.1,0-.2.2-.3.3,0,.1,0,.3,0,.4h0c0,.2,0,.4.1.5,0,.1.2.2.3.3.1,0,.3.1.4.1s.3,0,.4,0c.1,0,.2-.1.3-.2l.2.2c0,.1-.2.2-.4.3-.1,0-.3,0-.5,0Z"/>
            <path class="st18" d="M413.8,519.1c-.2,0-.4,0-.6-.1s-.3-.2-.4-.4c0-.2-.1-.4-.1-.6s0-.4.1-.6c0-.2.2-.3.4-.4.2,0,.4-.1.6-.1s.3,0,.5.1c.1,0,.3.2.3.3h-.2c0,0-.2,0-.3,0-.1,0-.2,0-.4,0s-.3,0-.4.1c-.1,0-.2.2-.3.3,0,.1-.1.3-.1.4s0,.3.1.4c0,.1.2.2.3.3.1,0,.3.1.4.1s.2,0,.4,0c.1,0,.2-.1.3-.2h.2c0,.3-.2.4-.3.5-.1,0-.3.1-.5.1Z"/>
            <path class="st18" d="M414.9,517.2v-.2h1.3v.2h-1.3ZM415.9,519.1c-.2,0-.4,0-.5-.2s-.2-.3-.2-.5v-2h.3v2c0,.1,0,.2,0,.3,0,0,.2.1.3.1s.2,0,.3-.1v.2c0,0,0,0-.1.1s-.2,0-.2,0Z"/>
            <path class="st18" d="M417.7,519.1c-.2,0-.4,0-.6-.1-.2,0-.3-.2-.4-.4,0-.2-.1-.4-.1-.6s0-.4.1-.6c0-.2.2-.3.4-.4.2,0,.3-.1.5-.1s.4,0,.5.1.3.2.4.4c0,.2.1.4.1.6s0,0,0,0c0,0,0,0,0,0h-1.9v-.2h1.7-.1c0,0,0-.2,0-.3s-.2-.2-.3-.3c-.1,0-.2-.1-.4-.1s-.3,0-.4.1c-.1,0-.2.2-.3.3s0,.3,0,.4h0c0,.2,0,.4.1.5,0,.1.2.2.3.3.1,0,.3.1.4.1s.3,0,.4,0c.1,0,.2-.1.3-.2l.2.2c0,.1-.2.2-.4.3s-.3,0-.5,0Z"/>
            <path class="st18" d="M418.9,517.2v-.2h1.3v.2h-1.3ZM419.9,519.1c-.2,0-.4,0-.5-.2s-.2-.3-.2-.5v-2h.3v2c0,.1,0,.2,0,.3,0,0,.2.1.3.1s.2,0,.3-.1v.2c0,0,0,0-.1.1s-.2,0-.2,0Z"/>
            <path class="st18" d="M421.8,519.1c-.2,0-.3,0-.5-.1-.1,0-.2-.2-.3-.3,0-.1-.1-.3-.1-.5v-1.2h.3v1.2c0,.2,0,.4.2.5.1.1.3.2.5.2s.3,0,.4,0c.1,0,.2-.2.3-.3,0-.1,0-.3,0-.4v-1.1h.3v2.1h-.3v-.6h0c0,.3-.2.4-.3.5-.1,0-.3.1-.5.1Z"/>
            <path class="st18" d="M424.5,519.1c-.2,0-.4,0-.6-.1-.2,0-.3-.2-.4-.4,0-.2-.1-.4-.1-.6s0-.4.1-.6c0-.2.2-.3.4-.4.2,0,.3-.1.5-.1s.4,0,.5.1.3.2.4.4c0,.2.1.4.1.6s0,0,0,0c0,0,0,0,0,0h-1.9v-.2h1.7-.1c0,0,0-.2,0-.3s-.2-.2-.3-.3c-.1,0-.2-.1-.4-.1s-.3,0-.4.1c-.1,0-.2.2-.3.3s0,.3,0,.4h0c0,.2,0,.4.1.5,0,.1.2.2.3.3.1,0,.3.1.4.1s.3,0,.4,0c.1,0,.2-.1.3-.2l.2.2c0,.1-.2.2-.4.3s-.3,0-.5,0Z"/>
            <path class="st18" d="M426.1,519.1v-2.1h.3v.6h0c0-.3.2-.4.3-.5.1,0,.3-.1.5-.1v.3s0,0,0,0c0,0,0,0,0,0-.2,0-.4,0-.5.2-.1.1-.2.3-.2.6v1.1h-.3Z"/>
            <path class="st18" d="M429.4,519.1c-.2,0-.3,0-.4,0-.1,0-.2-.1-.3-.2,0,0,0-.2,0-.3s0-.2,0-.3c0,0,.1-.2.3-.2s.3,0,.5,0h.7v.2h-.7c-.2,0-.3,0-.4.1,0,0-.1.2-.1.3s0,.2.1.3c0,0,.2.1.4.1s.3,0,.4-.1c.1,0,.2-.2.3-.3v.2c0,.1,0,.3-.2.3-.1,0-.3.1-.5.1ZM430.1,519.1v-.5h0v-.9c0-.2,0-.3-.2-.4s-.3-.1-.5-.1-.3,0-.4,0-.2.1-.3.2v-.2c0,0,.1-.2.3-.2.2,0,.3,0,.5,0,.3,0,.5,0,.6.2.2.1.2.3.2.6v1.3h-.3Z"/>
            <path class="st18" d="M432,519.1c-.2,0-.4,0-.5-.1s-.3-.2-.4-.4c0-.2-.1-.4-.1-.6s0-.4.1-.6c0-.2.2-.3.4-.4s.3-.1.5-.1.4,0,.5.1c.1,0,.3.2.4.4,0,.2.1.4.1.6s0,.4-.1.6c0,.2-.2.3-.4.4-.1,0-.3.1-.5.1ZM432.1,518.9c.2,0,.3,0,.4-.1.1,0,.2-.2.3-.3s.1-.3.1-.4,0-.3-.1-.4-.2-.2-.3-.3c-.1,0-.3-.1-.4-.1s-.3,0-.4.1-.2.2-.3.3-.1.3-.1.4,0,.3.1.4.2.2.3.3c.1,0,.3.1.4.1ZM432.9,519.1v-1.1s0-.4,0-.4v-1.5h.3v3h-.3Z"/>
            <path class="st18" d="M434.1,516.5c0,0-.1,0-.2,0,0,0,0,0,0-.1s0-.1,0-.1,0,0,.2,0,.1,0,.2,0,0,0,0,.1,0,.1,0,.2c0,0,0,0-.2,0ZM434,519.1v-2.1h.3v2.1h-.3Z"/>
            <path class="st18" d="M435.1,519.9v-2.9h.3v1.1s0,.4,0,.4v1.4h-.3ZM436.2,519.1c-.2,0-.4,0-.5-.1-.1,0-.3-.2-.4-.4,0-.2-.1-.4-.1-.6s0-.4.1-.6c0-.2.2-.3.4-.4.1,0,.3-.1.5-.1s.4,0,.5.1c.2,0,.3.2.4.4,0,.2.1.4.1.6s0,.4-.1.6c0,.2-.2.3-.4.4-.2,0-.3.1-.5.1ZM436.1,518.9c.2,0,.3,0,.4-.1.1,0,.2-.2.3-.3,0-.1.1-.3.1-.4s0-.3-.1-.4c0-.1-.2-.2-.3-.3-.1,0-.3-.1-.4-.1s-.3,0-.4.1c-.1,0-.2.2-.3.3s-.1.3-.1.4,0,.3.1.4.2.2.3.3c.1,0,.3.1.4.1Z"/>
            <path class="st18" d="M438,516.5c0,0-.1,0-.2,0,0,0,0,0,0-.1s0-.1,0-.1,0,0,.2,0,.1,0,.2,0,0,0,0,.1,0,.1,0,.2c0,0,0,0-.2,0ZM437.8,519.1v-2.1h.3v2.1h-.3Z"/>
            <path class="st18" d="M439.5,519.1c-.2,0-.3,0-.5,0-.2,0-.3-.1-.4-.2v-.2c.2,0,.3.1.5.2s.3,0,.4,0,.4,0,.4,0,.1-.1.1-.3,0-.1,0-.2c0,0-.1,0-.2-.1,0,0-.2,0-.3,0-.1,0-.2,0-.3,0,0,0-.2,0-.3,0,0,0-.1,0-.2-.2,0,0,0-.2,0-.3s0-.2,0-.3c0,0,.2-.2.3-.2.1,0,.3,0,.5,0s.3,0,.4,0c.1,0,.3,0,.3.1v.2c-.2,0-.3-.1-.4-.1-.1,0-.2,0-.3,0-.2,0-.3,0-.4,0,0,0-.1.2-.1.3s0,.1,0,.2c0,0,.1,0,.2.1,0,0,.2,0,.3,0,0,0,.2,0,.3,0,0,0,.2,0,.3,0,0,0,.1,0,.2.2,0,0,0,.2,0,.3s0,.2-.1.3c0,0-.2.2-.3.2-.1,0-.3,0-.5,0Z"/>
            <path class="st18" d="M441.8,519.1c-.2,0-.4,0-.6-.1s-.3-.2-.4-.4c0-.2-.1-.4-.1-.6s0-.4.1-.6.2-.3.4-.4c.2,0,.4-.1.6-.1s.3,0,.5.1c.1,0,.3.2.3.3h-.2c0,0-.2,0-.3,0-.1,0-.2,0-.4,0s-.3,0-.4.1-.2.2-.3.3-.1.3-.1.4,0,.3.1.4.2.2.3.3c.1,0,.3.1.4.1s.2,0,.4,0c.1,0,.2-.1.3-.2h.2c0,.3-.2.4-.3.5-.1,0-.3.1-.5.1Z"/>
            <path class="st18" d="M443.3,516.5c0,0-.1,0-.2,0,0,0,0,0,0-.1s0-.1,0-.1,0,0,.2,0,.1,0,.2,0,0,0,0,.1,0,.1,0,.2c0,0,0,0-.2,0ZM443.2,519.1v-2.1h.3v2.1h-.3Z"/>
            <path class="st18" d="M445.4,516.9c.2,0,.3,0,.5,0,.1,0,.2.2.3.3,0,.1.1.3.1.5v1.2h-.3v-1.2c0-.2,0-.4-.2-.5-.1-.1-.3-.2-.5-.2s-.3,0-.4,0c-.1,0-.2.1-.3.3,0,.1,0,.3,0,.4v1.1h-.3v-2.1h.3v.6h0c0-.3.2-.4.3-.5.1,0,.3-.1.5-.1Z"/>
            <path class="st18" d="M447.9,519c-.2,0-.4,0-.6-.1s-.3-.2-.4-.4c0-.2-.1-.3-.1-.5s0-.4.1-.5.2-.3.4-.4.3-.1.6-.1.4,0,.5.1c.2,0,.3.2.4.4,0,.2.1.3.1.6s0,.4-.1.6c0,.2-.2.3-.4.4-.2,0-.3.1-.5.1ZM447.9,519.9c-.2,0-.4,0-.6,0-.2,0-.3-.1-.4-.2v-.2c.2,0,.4.2.5.2.1,0,.3,0,.5,0,.3,0,.5,0,.6-.2.1-.1.2-.3.2-.6v-.9s0-.4,0-.4v-.6h.3v1.9c0,.4,0,.6-.3.8-.2.2-.4.3-.8.3ZM447.9,518.8c.2,0,.3,0,.4-.1.1,0,.2-.2.3-.3s.1-.3.1-.4,0-.3-.1-.4-.2-.2-.3-.3-.3,0-.4,0-.3,0-.4,0c-.1,0-.2.2-.3.3s-.1.3-.1.4,0,.3.1.4.2.2.3.3c.1,0,.3.1.4.1Z"/>
            <path class="st18" d="M451.8,519.1c-.2,0-.4,0-.6-.1-.2,0-.3-.2-.4-.4,0-.2-.1-.4-.1-.6s0-.4.1-.6c0-.2.2-.3.4-.4.2,0,.3-.1.5-.1s.4,0,.5.1.3.2.4.4c0,.2.1.4.1.6s0,0,0,0c0,0,0,0,0,0h-1.9v-.2h1.7-.1c0,0,0-.2,0-.3s-.2-.2-.3-.3c-.1,0-.2-.1-.4-.1s-.3,0-.4.1c-.1,0-.2.2-.3.3s0,.3,0,.4h0c0,.2,0,.4.1.5,0,.1.2.2.3.3.1,0,.3.1.4.1s.3,0,.4,0c.1,0,.2-.1.3-.2l.2.2c0,.1-.2.2-.4.3s-.3,0-.5,0Z"/>
            <path class="st18" d="M453.3,519.1v-3h.3v3h-.3Z"/>
            <path class="st18" d="M454.6,516.5c0,0-.1,0-.2,0,0,0,0,0,0-.1s0-.1,0-.1,0,0,.2,0,.1,0,.2,0,0,0,0,.1,0,.1,0,.2c0,0,0,0-.2,0ZM454.4,519.1v-2.1h.3v2.1h-.3Z"/>
            <path class="st18" d="M455.2,517.2v-.2h1.3v.2h-1.3ZM456.2,519.1c-.2,0-.4,0-.5-.2s-.2-.3-.2-.5v-2h.3v2c0,.1,0,.2,0,.3,0,0,.2.1.3.1s.2,0,.3-.1v.2c0,0,0,0-.1.1s-.2,0-.2,0Z"/>
            <path class="st18" d="M457.1,519.7l.2-.8v.2s0,0-.1,0,0,0,0-.2,0-.1,0-.2c0,0,0,0,.2,0s.1,0,.2,0c0,0,0,0,0,.2s0,0,0,0c0,0,0,0,0,0,0,0,0,0,0,0l-.2.6h-.2Z"/>
            <path class="st18" d="M459.7,519.1c-.2,0-.3,0-.5,0-.2,0-.3-.1-.4-.2v-.2c.2,0,.3.1.5.2s.3,0,.4,0,.4,0,.4,0,.1-.1.1-.3,0-.1,0-.2c0,0-.1,0-.2-.1,0,0-.2,0-.3,0-.1,0-.2,0-.3,0,0,0-.2,0-.3,0,0,0-.1,0-.2-.2,0,0,0-.2,0-.3s0-.2,0-.3c0,0,.2-.2.3-.2.1,0,.3,0,.5,0s.3,0,.4,0c.1,0,.3,0,.3.1v.2c-.2,0-.3-.1-.4-.1-.1,0-.2,0-.3,0-.2,0-.3,0-.4,0,0,0-.1.2-.1.3s0,.1,0,.2c0,0,.1,0,.2.1,0,0,.2,0,.3,0,0,0,.2,0,.3,0,0,0,.2,0,.3,0,0,0,.1,0,.2.2,0,0,0,.2,0,.3s0,.2-.1.3c0,0-.2.2-.3.2-.1,0-.3,0-.5,0Z"/>
            <path class="st18" d="M462.1,519.1c-.2,0-.4,0-.6-.1-.2,0-.3-.2-.4-.4,0-.2-.1-.4-.1-.6s0-.4.1-.6c0-.2.2-.3.4-.4.2,0,.3-.1.5-.1s.4,0,.5.1.3.2.4.4c0,.2.1.4.1.6s0,0,0,0c0,0,0,0,0,0h-1.9v-.2h1.7-.1c0,0,0-.2,0-.3s-.2-.2-.3-.3c-.1,0-.2-.1-.4-.1s-.3,0-.4.1c-.1,0-.2.2-.3.3s0,.3,0,.4h0c0,.2,0,.4.1.5,0,.1.2.2.3.3.1,0,.3.1.4.1s.3,0,.4,0c.1,0,.2-.1.3-.2l.2.2c0,.1-.2.2-.4.3s-.3,0-.5,0Z"/>
            <path class="st18" d="M464.5,519.1c-.2,0-.4,0-.5-.1s-.3-.2-.4-.4c0-.2-.1-.4-.1-.6s0-.4.1-.6c0-.2.2-.3.4-.4s.3-.1.5-.1.4,0,.5.1c.1,0,.3.2.4.4,0,.2.1.4.1.6s0,.4-.1.6c0,.2-.2.3-.4.4-.1,0-.3.1-.5.1ZM464.5,518.9c.2,0,.3,0,.4-.1.1,0,.2-.2.3-.3s.1-.3.1-.4,0-.3-.1-.4-.2-.2-.3-.3c-.1,0-.3-.1-.4-.1s-.3,0-.4.1-.2.2-.3.3-.1.3-.1.4,0,.3.1.4.2.2.3.3c.1,0,.3.1.4.1ZM465.3,519.1v-1.1s0-.4,0-.4v-1.5h.3v3h-.3Z"/>
            <path class="st18" d="M468.3,519.1c-.2,0-.4,0-.5-.1s-.3-.2-.4-.4c0-.2-.1-.4-.1-.6s0-.4.1-.6c0-.2.2-.3.4-.4s.3-.1.5-.1.4,0,.5.1c.1,0,.3.2.4.4,0,.2.1.4.1.6s0,.4-.1.6c0,.2-.2.3-.4.4-.1,0-.3.1-.5.1ZM468.3,518.9c.2,0,.3,0,.4-.1.1,0,.2-.2.3-.3s.1-.3.1-.4,0-.3-.1-.4-.2-.2-.3-.3c-.1,0-.3-.1-.4-.1s-.3,0-.4.1-.2.2-.3.3-.1.3-.1.4,0,.3.1.4.2.2.3.3c.1,0,.3.1.4.1ZM469.1,519.1v-1.1s0-.4,0-.4v-1.5h.3v3h-.3Z"/>
            <path class="st18" d="M470.3,516.5c0,0-.1,0-.2,0,0,0,0,0,0-.1s0-.1,0-.1,0,0,.2,0,.1,0,.2,0,0,0,0,.1,0,.1,0,.2c0,0,0,0-.2,0ZM470.2,519.1v-2.1h.3v2.1h-.3Z"/>
            <path class="st18" d="M471.9,519.1c-.2,0-.3,0-.4,0-.1,0-.2-.1-.3-.2,0,0,0-.2,0-.3s0-.2,0-.3c0,0,.1-.2.3-.2s.3,0,.5,0h.7v.2h-.7c-.2,0-.3,0-.4.1,0,0-.1.2-.1.3s0,.2.1.3c0,0,.2.1.4.1s.3,0,.4-.1c.1,0,.2-.2.3-.3v.2c0,.1,0,.3-.2.3-.1,0-.3.1-.5.1ZM472.6,519.1v-.5h0v-.9c0-.2,0-.3-.2-.4s-.3-.1-.5-.1-.3,0-.4,0-.2.1-.3.2v-.2c0,0,.1-.2.3-.2.2,0,.3,0,.5,0,.3,0,.5,0,.6.2.2.1.2.3.2.6v1.3h-.3Z"/>
            <path class="st18" d="M476.4,516.9c.2,0,.3,0,.5,0,.1,0,.2.2.3.3,0,.1.1.3.1.5v1.2h-.3v-1.2c0-.2,0-.4-.2-.5-.1-.1-.3-.2-.5-.2s-.3,0-.4,0c-.1,0-.2.1-.2.3,0,.1,0,.3,0,.4v1.1h-.3v-1.2c0-.2,0-.4-.2-.5-.1-.1-.3-.2-.5-.2s-.3,0-.4,0c-.1,0-.2.1-.3.3,0,.1,0,.3,0,.4v1.1h-.3v-2.1h.3v.6h0c0-.3.2-.4.3-.5.1,0,.3-.1.5-.1s.4,0,.5.2.2.3.3.5h-.1c0-.2.2-.4.3-.5.2-.1.4-.2.6-.2Z"/>
            <path class="st18" d="M357.9,521.8c.2,0,.3,0,.5,0,.1,0,.2.2.3.3,0,.1.1.3.1.5v1.2h-.3v-1.2c0-.2,0-.4-.2-.5-.1-.1-.3-.2-.5-.2s-.3,0-.4,0c-.1,0-.2.1-.3.3,0,.1,0,.3,0,.4v1.1h-.3v-2.1h.3v.6h0c0-.3.2-.4.3-.5.1,0,.3-.1.5-.1Z"/>
            <path class="st18" d="M360.5,524c-.2,0-.4,0-.6-.1s-.3-.2-.4-.4c0-.2-.1-.4-.1-.6s0-.4.1-.6.2-.3.4-.4c.2,0,.3-.1.6-.1s.4,0,.6.1c.2,0,.3.2.4.4s.1.4.1.6,0,.4-.1.6c0,.2-.2.3-.4.4-.2,0-.4.1-.6.1ZM360.5,523.8c.2,0,.3,0,.4-.1.1,0,.2-.2.3-.3,0-.1.1-.3.1-.4s0-.3-.1-.4c0-.1-.2-.2-.3-.3s-.3-.1-.4-.1-.3,0-.4.1-.2.2-.3.3-.1.3-.1.4,0,.3.1.4.2.2.3.3c.1,0,.3.1.4.1Z"/>
            <path class="st18" d="M363.2,521.8c.2,0,.3,0,.5,0,.1,0,.2.2.3.3,0,.1.1.3.1.5v1.2h-.3v-1.2c0-.2,0-.4-.2-.5-.1-.1-.3-.2-.5-.2s-.3,0-.4,0c-.1,0-.2.1-.3.3,0,.1,0,.3,0,.4v1.1h-.3v-2.1h.3v.6h0c0-.3.2-.4.3-.5.1,0,.3-.1.5-.1Z"/>
            <path class="st18" d="M365.8,524c-.2,0-.3,0-.5-.1-.1,0-.2-.2-.3-.3,0-.1-.1-.3-.1-.5v-1.2h.3v1.2c0,.2,0,.4.2.5.1.1.3.2.5.2s.3,0,.4,0c.1,0,.2-.2.3-.3s0-.3,0-.4v-1.1h.3v2.1h-.3v-.6h0c0,.3-.2.4-.3.5-.1,0-.3.1-.5.1Z"/>
            <path class="st18" d="M370.3,521.8c.2,0,.3,0,.5,0,.1,0,.2.2.3.3,0,.1.1.3.1.5v1.2h-.3v-1.2c0-.2,0-.4-.2-.5-.1-.1-.3-.2-.5-.2s-.3,0-.4,0c-.1,0-.2.1-.2.3,0,.1,0,.3,0,.4v1.1h-.3v-1.2c0-.2,0-.4-.2-.5-.1-.1-.3-.2-.5-.2s-.3,0-.4,0c-.1,0-.2.1-.3.3,0,.1,0,.3,0,.4v1.1h-.3v-2.1h.3v.6h0c0-.3.2-.4.3-.5.1,0,.3-.1.5-.1s.4,0,.5.2c.1.1.2.3.3.5h-.1c0-.2.2-.4.3-.5.2-.1.3-.2.6-.2Z"/>
            <path class="st18" d="M374.6,521.8c.2,0,.3,0,.5,0,.1,0,.2.2.3.3,0,.1.1.3.1.5v1.2h-.3v-1.2c0-.2,0-.4-.2-.5-.1-.1-.3-.2-.5-.2s-.3,0-.4,0c-.1,0-.2.1-.2.3,0,.1,0,.3,0,.4v1.1h-.3v-1.2c0-.2,0-.4-.2-.5-.1-.1-.3-.2-.5-.2s-.3,0-.4,0c-.1,0-.2.1-.3.3,0,.1,0,.3,0,.4v1.1h-.3v-2.1h.3v.6h0c0-.3.2-.4.3-.5.1,0,.3-.1.5-.1s.4,0,.5.2c.1.1.2.3.3.5h-.1c0-.2.2-.4.3-.5.2-.1.3-.2.6-.2Z"/>
            <path class="st18" d="M376.3,524.8c-.1,0-.2,0-.3,0,0,0-.2,0-.2-.1v-.2c.2,0,.2,0,.3.1s.1,0,.2,0,.2,0,.2,0c0,0,.1-.1.2-.3v-.3c.1,0,.2,0,.2,0l.9-2h.3l-1.1,2.4c0,.1-.1.2-.2.3,0,0-.1.1-.2.2,0,0-.2,0-.3,0ZM376.8,524.1l-1-2.2h.3l.9,2-.2.2Z"/>
            <path class="st18" d="M380.6,521.8c.2,0,.3,0,.5,0,.1,0,.2.2.3.3,0,.1.1.3.1.5v1.2h-.3v-1.2c0-.2,0-.4-.2-.5-.1-.1-.3-.2-.5-.2s-.3,0-.4,0c-.1,0-.2.1-.3.3,0,.1,0,.3,0,.4v1.1h-.3v-2.1h.3v.6h0c0-.3.2-.4.3-.5.1,0,.3-.1.5-.1Z"/>
            <path class="st18" d="M382.4,521.4c0,0-.1,0-.2,0,0,0,0,0,0-.1s0-.1,0-.1c0,0,0,0,.2,0s.1,0,.2,0c0,0,0,0,0,.1s0,.1,0,.2c0,0,0,0-.2,0ZM382.3,524v-2.1h.3v2.1h-.3Z"/>
            <path class="st18" d="M383.4,524v-3h.3v1.9s0,.4,0,.4v.6h-.3ZM384.5,524c-.2,0-.4,0-.5-.1-.1,0-.3-.2-.4-.4,0-.2-.1-.4-.1-.6s0-.4.1-.6c0-.2.2-.3.4-.4.1,0,.3-.1.5-.1s.4,0,.5.1.3.2.4.4.1.4.1.6,0,.4-.1.6c0,.2-.2.3-.4.4s-.3.1-.5.1ZM384.5,523.8c.2,0,.3,0,.4-.1.1,0,.2-.2.3-.3,0-.1.1-.3.1-.4s0-.3-.1-.4c0-.1-.2-.2-.3-.3s-.3-.1-.4-.1-.3,0-.4.1c-.1,0-.2.2-.3.3s-.1.3-.1.4,0,.3.1.4.2.2.3.3c.1,0,.3.1.4.1Z"/>
            <path class="st18" d="M387.2,521.8c.2,0,.3,0,.5,0,.1,0,.2.2.3.3,0,.1.1.3.1.5v1.2h-.3v-1.2c0-.2,0-.4-.2-.5-.1-.1-.3-.2-.5-.2s-.3,0-.4,0c-.1,0-.2.1-.3.3,0,.1,0,.3,0,.4v1.1h-.3v-3h.3v1.5h0c0-.3.2-.4.3-.5.1,0,.3-.1.5-.1Z"/>
            <path class="st18" d="M390.9,524c-.2,0-.4,0-.6-.1s-.3-.2-.4-.4c0-.2-.1-.4-.1-.6s0-.4.1-.6c0-.2.2-.3.4-.4.2,0,.3-.1.5-.1s.4,0,.5.1c.2,0,.3.2.4.4,0,.2.1.4.1.6s0,0,0,0c0,0,0,0,0,0h-1.9v-.2h1.7-.1c0,0,0-.2,0-.3,0-.1-.2-.2-.3-.3-.1,0-.2-.1-.4-.1s-.3,0-.4.1c-.1,0-.2.2-.3.3,0,.1,0,.3,0,.4h0c0,.2,0,.4.1.5,0,.1.2.2.3.3.1,0,.3.1.4.1s.3,0,.4,0,.2-.1.3-.2l.2.2c0,.1-.2.2-.4.3-.1,0-.3,0-.5,0Z"/>
            <path class="st18" d="M393.3,524c-.2,0-.3,0-.5-.1-.1,0-.2-.2-.3-.3,0-.1-.1-.3-.1-.5v-1.2h.3v1.2c0,.2,0,.4.2.5.1.1.3.2.5.2s.3,0,.4,0c.1,0,.2-.2.3-.3s0-.3,0-.4v-1.1h.3v2.1h-.3v-.6h0c0,.3-.2.4-.3.5-.1,0-.3.1-.5.1Z"/>
            <path class="st18" d="M395.3,521.4c0,0-.1,0-.2,0,0,0,0,0,0-.1s0-.1,0-.1c0,0,0,0,.2,0s.1,0,.2,0c0,0,0,0,0,.1s0,.1,0,.2c0,0,0,0-.2,0ZM395.2,524v-2.1h.3v2.1h-.3Z"/>
            <path class="st18" d="M396.8,524c-.2,0-.3,0-.5,0-.2,0-.3-.1-.4-.2v-.2c.2,0,.3.1.5.2.1,0,.3,0,.4,0s.4,0,.4,0c0,0,.1-.1.1-.3s0-.1,0-.2-.1,0-.2-.1c0,0-.2,0-.3,0-.1,0-.2,0-.3,0s-.2,0-.3,0-.1,0-.2-.2,0-.2,0-.3,0-.2,0-.3c0,0,.2-.2.3-.2.1,0,.3,0,.5,0s.3,0,.4,0c.1,0,.3,0,.3.1v.2c-.2,0-.3-.1-.4-.1-.1,0-.2,0-.3,0-.2,0-.3,0-.4,0,0,0-.1.2-.1.3s0,.1,0,.2.1,0,.2.1c0,0,.2,0,.3,0,0,0,.2,0,.3,0,0,0,.2,0,.3,0,0,0,.1,0,.2.2s0,.2,0,.3,0,.2-.1.3c0,0-.2.2-.3.2-.1,0-.3,0-.5,0Z"/>
            <path class="st18" d="M400.9,521.8c.2,0,.3,0,.5,0,.1,0,.2.2.3.3,0,.1.1.3.1.5v1.2h-.3v-1.2c0-.2,0-.4-.2-.5-.1-.1-.3-.2-.5-.2s-.3,0-.4,0c-.1,0-.2.1-.2.3,0,.1,0,.3,0,.4v1.1h-.3v-1.2c0-.2,0-.4-.2-.5-.1-.1-.3-.2-.5-.2s-.3,0-.4,0c-.1,0-.2.1-.3.3,0,.1,0,.3,0,.4v1.1h-.3v-2.1h.3v.6h0c0-.3.2-.4.3-.5.1,0,.3-.1.5-.1s.4,0,.5.2c.1.1.2.3.3.5h-.1c0-.2.2-.4.3-.5.2-.1.3-.2.6-.2Z"/>
            <path class="st18" d="M403.4,524c-.2,0-.4,0-.6-.1s-.3-.2-.4-.4c0-.2-.1-.4-.1-.6s0-.4.1-.6.2-.3.4-.4c.2,0,.3-.1.6-.1s.4,0,.6.1c.2,0,.3.2.4.4s.1.4.1.6,0,.4-.1.6c0,.2-.2.3-.4.4-.2,0-.4.1-.6.1ZM403.4,523.8c.2,0,.3,0,.4-.1.1,0,.2-.2.3-.3,0-.1.1-.3.1-.4s0-.3-.1-.4c0-.1-.2-.2-.3-.3s-.3-.1-.4-.1-.3,0-.4.1-.2.2-.3.3-.1.3-.1.4,0,.3.1.4.2.2.3.3c.1,0,.3.1.4.1Z"/>
            <path class="st18" d="M406,524c-.2,0-.4,0-.5-.1s-.3-.2-.4-.4c0-.2-.1-.4-.1-.6s0-.4.1-.6c0-.2.2-.3.4-.4s.3-.1.5-.1.4,0,.5.1c.1,0,.3.2.4.4,0,.2.1.4.1.6s0,.4-.1.6c0,.2-.2.3-.4.4-.1,0-.3.1-.5.1ZM406,523.8c.2,0,.3,0,.4-.1.1,0,.2-.2.3-.3,0-.1.1-.3.1-.4s0-.3-.1-.4c0-.1-.2-.2-.3-.3-.1,0-.3-.1-.4-.1s-.3,0-.4.1-.2.2-.3.3-.1.3-.1.4,0,.3.1.4.2.2.3.3c.1,0,.3.1.4.1ZM406.8,524v-1.1s0-.4,0-.4v-1.5h.3v3h-.3Z"/>
            <path class="st18" d="M408.6,522.1v-.2h1.3v.2h-1.3ZM409.6,524c-.2,0-.4,0-.5-.2-.1-.1-.2-.3-.2-.5v-2h.3v2c0,.1,0,.2,0,.3s.2.1.3.1.2,0,.3-.1v.2c0,0,0,0-.1.1s-.2,0-.2,0Z"/>
            <path class="st18" d="M410.8,521.4c0,0-.1,0-.2,0,0,0,0,0,0-.1s0-.1,0-.1c0,0,0,0,.2,0s.1,0,.2,0c0,0,0,0,0,.1s0,.1,0,.2c0,0,0,0-.2,0ZM410.6,524v-2.1h.3v2.1h-.3Z"/>
            <path class="st18" d="M412.8,521.8c.2,0,.3,0,.5,0,.1,0,.2.2.3.3,0,.1.1.3.1.5v1.2h-.3v-1.2c0-.2,0-.4-.2-.5-.1-.1-.3-.2-.5-.2s-.3,0-.4,0c-.1,0-.2.1-.3.3,0,.1,0,.3,0,.4v1.1h-.3v-2.1h.3v.6h0c0-.3.2-.4.3-.5.1,0,.3-.1.5-.1Z"/>
            <path class="st18" d="M415.4,524c-.2,0-.4,0-.6-.1s-.3-.2-.4-.4c0-.2-.1-.4-.1-.6s0-.4.1-.6.2-.3.4-.4c.2,0,.4-.1.6-.1s.3,0,.5.1c.1,0,.3.2.3.3h-.2c0,0-.2,0-.3,0-.1,0-.2,0-.4,0s-.3,0-.4.1-.2.2-.3.3-.1.3-.1.4,0,.3.1.4.2.2.3.3c.1,0,.3.1.4.1s.2,0,.4,0c.1,0,.2-.1.3-.2h.2c0,.3-.2.4-.3.5-.1,0-.3.1-.5.1Z"/>
            <path class="st18" d="M416.9,521.4c0,0-.1,0-.2,0,0,0,0,0,0-.1s0-.1,0-.1,0,0,.2,0,.1,0,.2,0,0,0,0,.1,0,.1,0,.2c0,0,0,0-.2,0ZM416.7,524v-2.1h.3v2.1h-.3Z"/>
            <path class="st18" d="M418.7,524c-.2,0-.4,0-.5-.1s-.3-.2-.4-.4c0-.2-.1-.4-.1-.6s0-.4.1-.6c0-.2.2-.3.4-.4s.3-.1.5-.1.4,0,.5.1c.1,0,.3.2.4.4,0,.2.1.4.1.6s0,.4-.1.6c0,.2-.2.3-.4.4-.1,0-.3.1-.5.1ZM418.7,523.8c.2,0,.3,0,.4-.1.1,0,.2-.2.3-.3s.1-.3.1-.4,0-.3-.1-.4-.2-.2-.3-.3c-.1,0-.3-.1-.4-.1s-.3,0-.4.1-.2.2-.3.3-.1.3-.1.4,0,.3.1.4.2.2.3.3c.1,0,.3.1.4.1ZM419.5,524v-1.1s0-.4,0-.4v-1.5h.3v3h-.3Z"/>
            <path class="st18" d="M421.5,524c-.2,0-.3,0-.5-.1-.1,0-.2-.2-.3-.3,0-.1-.1-.3-.1-.5v-1.2h.3v1.2c0,.2,0,.4.2.5.1.1.3.2.5.2s.3,0,.4,0c.1,0,.2-.2.3-.3,0-.1,0-.3,0-.4v-1.1h.3v2.1h-.3v-.6h0c0,.3-.2.4-.3.5-.1,0-.3.1-.5.1Z"/>
            <path class="st18" d="M424.4,521.8c.2,0,.3,0,.5,0,.1,0,.2.2.3.3,0,.1.1.3.1.5v1.2h-.3v-1.2c0-.2,0-.4-.2-.5-.1-.1-.3-.2-.5-.2s-.3,0-.4,0c-.1,0-.2.1-.3.3,0,.1,0,.3,0,.4v1.1h-.3v-2.1h.3v.6h0c0-.3.2-.4.3-.5.1,0,.3-.1.5-.1Z"/>
            <path class="st18" d="M425.7,522.1v-.2h1.3v.2h-1.3ZM426.8,524c-.2,0-.4,0-.5-.2s-.2-.3-.2-.5v-2h.3v2c0,.1,0,.2,0,.3,0,0,.2.1.3.1s.2,0,.3-.1v.2c0,0,0,0-.1.1s-.2,0-.2,0Z"/>
            <path class="st18" d="M429.7,524c-.2,0-.3,0-.5-.1-.1,0-.2-.2-.3-.3,0-.1-.1-.3-.1-.5v-1.2h.3v1.2c0,.2,0,.4.2.5.1.1.3.2.5.2s.3,0,.4,0c.1,0,.2-.2.3-.3,0-.1,0-.3,0-.4v-1.1h.3v2.1h-.3v-.6h0c0,.3-.2.4-.3.5-.1,0-.3.1-.5.1Z"/>
            <path class="st18" d="M431.2,522.1v-.2h1.3v.2h-1.3ZM432.2,524c-.2,0-.4,0-.5-.2s-.2-.3-.2-.5v-2h.3v2c0,.1,0,.2,0,.3,0,0,.2.1.3.1s.2,0,.3-.1v.2c0,0,0,0-.1.1s-.2,0-.2,0Z"/>
            <path class="st18" d="M434.3,524v-3h.3v3h-.3Z"/>
            <path class="st18" d="M436,524c-.2,0-.3,0-.4,0-.1,0-.2-.1-.3-.2,0,0,0-.2,0-.3s0-.2,0-.3c0,0,.1-.2.3-.2s.3,0,.5,0h.7v.2h-.7c-.2,0-.3,0-.4.1,0,0-.1.2-.1.3s0,.2.1.3c0,0,.2.1.4.1s.3,0,.4-.1c.1,0,.2-.2.3-.3v.2c0,.1,0,.3-.2.3-.1,0-.3.1-.5.1ZM436.7,524v-.5h0v-.9c0-.2,0-.3-.2-.4s-.3-.1-.5-.1-.3,0-.4,0-.2.1-.3.2v-.2c0,0,.1-.2.3-.2.2,0,.3,0,.5,0,.3,0,.5,0,.6.2.2.1.2.3.2.6v1.3h-.3Z"/>
            <path class="st18" d="M438.6,524c-.2,0-.4,0-.6-.1-.2,0-.3-.2-.4-.4,0-.2-.1-.4-.1-.6s0-.4.1-.6.2-.3.4-.4c.2,0,.3-.1.6-.1s.4,0,.6.1c.2,0,.3.2.4.4s.1.4.1.6,0,.4-.1.6c0,.2-.2.3-.4.4s-.4.1-.6.1ZM438.6,523.8c.2,0,.3,0,.4-.1.1,0,.2-.2.3-.3s.1-.3.1-.4,0-.3-.1-.4-.2-.2-.3-.3c-.1,0-.3-.1-.4-.1s-.3,0-.4.1-.2.2-.3.3-.1.3-.1.4,0,.3.1.4.2.2.3.3c.1,0,.3.1.4.1Z"/>
            <path class="st18" d="M440.3,524v-2.1h.3v.6h0c0-.3.2-.4.3-.5.1,0,.3-.1.5-.1v.3s0,0,0,0c0,0,0,0,0,0-.2,0-.4,0-.5.2-.1.1-.2.3-.2.6v1.1h-.3Z"/>
            <path class="st18" d="M442.8,524c-.2,0-.4,0-.6-.1-.2,0-.3-.2-.4-.4,0-.2-.1-.4-.1-.6s0-.4.1-.6c0-.2.2-.3.4-.4.2,0,.3-.1.5-.1s.4,0,.5.1.3.2.4.4c0,.2.1.4.1.6s0,0,0,0c0,0,0,0,0,0h-1.9v-.2h1.7-.1c0,0,0-.2,0-.3s-.2-.2-.3-.3c-.1,0-.2-.1-.4-.1s-.3,0-.4.1c-.1,0-.2.2-.3.3s0,.3,0,.4h0c0,.2,0,.4.1.5,0,.1.2.2.3.3.1,0,.3.1.4.1s.3,0,.4,0c.1,0,.2-.1.3-.2l.2.2c0,.1-.2.2-.4.3s-.3,0-.5,0Z"/>
            <path class="st18" d="M445.3,524c-.2,0-.4,0-.6-.1-.2,0-.3-.2-.4-.4,0-.2-.1-.4-.1-.6s0-.4.1-.6c0-.2.2-.3.4-.4.2,0,.3-.1.5-.1s.4,0,.5.1.3.2.4.4c0,.2.1.4.1.6s0,0,0,0c0,0,0,0,0,0h-1.9v-.2h1.7-.1c0,0,0-.2,0-.3s-.2-.2-.3-.3c-.1,0-.2-.1-.4-.1s-.3,0-.4.1c-.1,0-.2.2-.3.3s0,.3,0,.4h0c0,.2,0,.4.1.5,0,.1.2.2.3.3.1,0,.3.1.4.1s.3,0,.4,0c.1,0,.2-.1.3-.2l.2.2c0,.1-.2.2-.4.3s-.3,0-.5,0Z"/>
            <path class="st18" d="M446.5,522.1v-.2h1.3v.2h-1.3ZM447.5,524c-.2,0-.4,0-.5-.2s-.2-.3-.2-.5v-2h.3v2c0,.1,0,.2,0,.3,0,0,.2.1.3.1s.2,0,.3-.1v.2c0,0,0,0-.1.1s-.2,0-.2,0Z"/>
            <path class="st18" d="M450.4,524c-.2,0-.4,0-.5-.1s-.3-.2-.4-.4c0-.2-.1-.4-.1-.6s0-.4.1-.6c0-.2.2-.3.4-.4s.3-.1.5-.1.4,0,.5.1c.1,0,.3.2.4.4,0,.2.1.4.1.6s0,.4-.1.6c0,.2-.2.3-.4.4-.1,0-.3.1-.5.1ZM450.4,523.8c.2,0,.3,0,.4-.1.1,0,.2-.2.3-.3s.1-.3.1-.4,0-.3-.1-.4-.2-.2-.3-.3c-.1,0-.3-.1-.4-.1s-.3,0-.4.1-.2.2-.3.3-.1.3-.1.4,0,.3.1.4.2.2.3.3c.1,0,.3.1.4.1ZM451.2,524v-1.1s0-.4,0-.4v-1.5h.3v3h-.3Z"/>
            <path class="st18" d="M453.2,524c-.2,0-.4,0-.6-.1-.2,0-.3-.2-.4-.4,0-.2-.1-.4-.1-.6s0-.4.1-.6.2-.3.4-.4c.2,0,.3-.1.6-.1s.4,0,.6.1c.2,0,.3.2.4.4s.1.4.1.6,0,.4-.1.6c0,.2-.2.3-.4.4s-.4.1-.6.1ZM453.2,523.8c.2,0,.3,0,.4-.1.1,0,.2-.2.3-.3s.1-.3.1-.4,0-.3-.1-.4-.2-.2-.3-.3c-.1,0-.3-.1-.4-.1s-.3,0-.4.1-.2.2-.3.3-.1.3-.1.4,0,.3.1.4.2.2.3.3c.1,0,.3.1.4.1Z"/>
            <path class="st18" d="M454.9,524v-3h.3v3h-.3Z"/>
            <path class="st18" d="M456.8,524c-.2,0-.4,0-.6-.1-.2,0-.3-.2-.4-.4,0-.2-.1-.4-.1-.6s0-.4.1-.6.2-.3.4-.4c.2,0,.3-.1.6-.1s.4,0,.6.1c.2,0,.3.2.4.4s.1.4.1.6,0,.4-.1.6c0,.2-.2.3-.4.4s-.4.1-.6.1ZM456.8,523.8c.2,0,.3,0,.4-.1.1,0,.2-.2.3-.3s.1-.3.1-.4,0-.3-.1-.4-.2-.2-.3-.3c-.1,0-.3-.1-.4-.1s-.3,0-.4.1-.2.2-.3.3-.1.3-.1.4,0,.3.1.4.2.2.3.3c.1,0,.3.1.4.1Z"/>
            <path class="st18" d="M458.5,524v-2.1h.3v.6h0c0-.3.2-.4.3-.5.1,0,.3-.1.5-.1v.3s0,0,0,0c0,0,0,0,0,0-.2,0-.4,0-.5.2-.1.1-.2.3-.2.6v1.1h-.3Z"/>
            <path class="st18" d="M461,524c-.2,0-.4,0-.6-.1-.2,0-.3-.2-.4-.4,0-.2-.1-.4-.1-.6s0-.4.1-.6c0-.2.2-.3.4-.4.2,0,.3-.1.5-.1s.4,0,.5.1.3.2.4.4c0,.2.1.4.1.6s0,0,0,0c0,0,0,0,0,0h-1.9v-.2h1.7-.1c0,0,0-.2,0-.3s-.2-.2-.3-.3c-.1,0-.2-.1-.4-.1s-.3,0-.4.1c-.1,0-.2.2-.3.3s0,.3,0,.4h0c0,.2,0,.4.1.5,0,.1.2.2.3.3.1,0,.3.1.4.1s.3,0,.4,0c.1,0,.2-.1.3-.2l.2.2c0,.1-.2.2-.4.3s-.3,0-.5,0Z"/>
            <path class="st18" d="M462.6,524c0,0-.1,0-.2,0,0,0,0,0,0-.2s0-.1,0-.2c0,0,0,0,.2,0s.1,0,.2,0c0,0,0,0,0,.2s0,.1,0,.2c0,0,0,0-.2,0Z"/>
          </g>
        </g>
      </g>
    </g>
  </g>
</svg>