<?xml version="1.0" encoding="UTF-8"?>
<svg id="Vrstva_1" xmlns="http://www.w3.org/2000/svg" version="1.1" viewBox="0 0 512 512">
  <!-- Generator: Adobe Illustrator 29.4.0, SVG Export Plug-In . SVG Version: 2.1.0 Build 152)  -->
  <defs>
    <style>
      .st0 {
        fill: #aedef9;
      }

      .st1 {
        fill: #090400;
      }
    </style>
  </defs>
  <path class="st0" d="M442.8,334.4c-5.6,0-10.6-2.5-14.3-6.9-8.1-9.3-8.1-24.3,0-33.6l14.3-18,14.3,18c8.1,9.3,7.5,24.3,0,33.6h0c-3.8,4.4-8.7,6.9-14.3,6.9Z"/>
  <g>
    <path class="st1" d="M128.2,237.7c0,4.1-.9,8.1-2.7,11.8-1.8,3.8-4.3,7-7.5,9.9s-7.1,5.2-11.5,6.9-9.3,2.6-14.6,2.6-9.1-.3-12.9-.8c-3.8-.6-7.4-1.4-10.8-2.7-3.4-1.2-6.6-2.7-9.7-4.7s-6.3-4.1-9.6-6.9l15.2-15.4c4.4,3.7,8.8,6.3,13,7.8,4.2,1.6,8.9,2.3,13.8,2.3s3.9-.3,5.8-.9c1.8-.6,3.4-1.4,4.7-2.4s2.4-2.2,3.2-3.6,1.2-2.9,1.2-4.6-.3-3.3-1-4.7c-.7-1.4-1.8-2.7-3.5-4-1.6-1.3-4-2.6-7-3.9s-6.7-2.8-11.4-4.5c-4.1-1.5-8-3.2-11.7-5-3.8-1.9-7-4.1-9.8-6.9-2.8-2.7-5.1-5.8-6.8-9.4s-2.6-7.8-2.6-12.7,1-9,2.8-13,4.5-7.4,7.8-10.2c3.3-2.8,7.1-5,11.5-6.6,4.4-1.6,9.1-2.4,14.2-2.4,8.5,0,15.7,1.1,21.4,3.3,5.8,2.2,11,5.5,15.5,9.7l-14.9,15.1c-2.7-2.7-5.8-4.7-9.2-6.1s-7.4-2.1-12.1-2.1-4.1.3-5.9,1c-1.8.7-3.3,1.5-4.7,2.6-1.3,1-2.4,2.3-3.1,3.8-.8,1.4-1.2,3-1.2,4.5s.4,3.3,1.1,4.8c.7,1.4,2,2.8,3.8,4.1,1.8,1.3,4.1,2.7,7,4,2.9,1.3,6.5,2.8,10.9,4.4,5.5,1.9,10.3,4.1,14.3,6.4,4,2.3,7.2,4.9,9.7,7.6s4.4,5.9,5.5,9.3c1.2,3.5,1.8,7.4,1.8,11.7Z"/>
    <path class="st1" d="M218.3,266.7h-74.9v-110.6h21.9v89.9h53v20.8Z"/>
    <path class="st1" d="M315.8,155.9l-53.6,89.6h53.2v21.2h-90.1l54.8-91.6h-52.7c0,.1,0-19.1,0-19.1h88.5Z"/>
    <path class="st1" d="M442.7,266.7h-23.5l-10.2-22.2h-53.7l-10.4,22.2h-23.5l52.2-110.8h16.8l52.4,110.8h0ZM400.5,226.7l-18.4-39.9-18.7,39.9h37.1Z"/>
  </g>
  <g>
    <path class="st1" d="M56,358.7v-64.6h10.6v11.2l-.4,12.6.9,12.6v28.3h-11.1ZM82.2,342.1c-3.8,0-7.3-.9-10.5-2.7s-5.7-4.4-7.5-8.1c-1.8-3.5-2.8-8.1-2.8-13.6s.9-10.1,2.7-13.7c1.8-3.5,4.3-6.2,7.4-7.9,3.1-1.8,6.7-2.6,10.7-2.6s8.8,1,12.4,3,6.4,4.8,8.5,8.4,3.2,7.8,3.2,12.8-1,9.2-3.2,12.8c-2.1,3.6-5,6.4-8.5,8.5-3.5,2-7.7,3-12.4,3h0ZM81,332.6c2.7,0,5-.6,7.2-1.8,2.1-1.2,3.8-2.9,5-5.2s1.8-4.9,1.8-7.9-.6-5.7-1.8-7.9-2.9-3.9-5-5.1c-2.1-1.2-4.5-1.8-7.2-1.8s-5,.6-7.2,1.8-3.8,2.9-5,5.1c-1.3,2.2-1.8,4.9-1.8,7.9s.6,5.6,1.8,7.9,3,4,5,5.2c2.1,1.2,4.5,1.8,7.2,1.8Z"/>
    <path class="st1" d="M131,341.5v-47.4h10.6v13l-1.3-3.8c1.4-3.2,3.6-5.6,6.7-7.2,3-1.6,6.9-2.5,11.4-2.5v10.6c-.4-.1-.9-.2-1.3-.2h-1.3c-4.2,0-7.5,1.3-10.1,3.7s-3.7,6.1-3.7,10.9v23h-11.1Z"/>
    <path class="st1" d="M187.6,286.3c-2.1,0-3.8-.7-5.1-1.9-1.3-1.3-2-2.9-2-4.7s.7-3.5,2-4.7,3-1.9,5.1-1.9,3.8.6,5.1,1.8c1.3,1.2,2,2.7,2,4.6s-.7,3.6-1.9,5c-1.3,1.3-3,2-5.2,2h0ZM182.1,341.5v-47.4h11.1v47.4h-11.1Z"/>
    <path class="st1" d="M248.8,293.6c3.8,0,7.2.7,10.1,2.2,3,1.5,5.3,3.8,7,6.8,1.7,3,2.6,7,2.6,11.8v27.1h-11.1v-25.7c0-4.2-1-7.3-3-9.4s-4.7-3.1-8.3-3.1-5,.5-7,1.6c-2,1-3.5,2.7-4.7,4.7-1.1,2.1-1.6,4.7-1.6,7.9v24h-11.1v-47.4h10.6v12.8l-1.8-3.9c1.6-3,4.1-5.3,7.2-7,3.2-1.6,6.8-2.4,10.9-2.4Z"/>
    <path class="st1" d="M290.6,303.3v-8.9h31.6v8.9h-31.6ZM314.7,342.1c-5.2,0-9.2-1.3-12.1-4.1-2.8-2.7-4.3-6.7-4.3-11.9v-42.5h11.1v42.2c0,2.2.6,4,1.7,5.3s2.7,1.8,4.8,1.8,4.6-.7,6.2-1.9l3.1,7.9c-1.3,1-2.9,1.8-4.8,2.4-1.9.5-3.8.8-5.8.8h0Z"/>
  </g>
</svg>